<svg width="476" height="266" viewBox="0 0 476 266" xmlns="http://www.w3.org/2000/svg" xmlns:xlink="http://www.w3.org/1999/xlink">
    <defs>
        <path id="isc5wkwfca" d="M0 0h4.04v4.63H0z"/>
        <path id="r1ry4lmfxc" d="M0 0h8.582v8.097H0z"/>
        <path id="hdya0r7d9e" d="M0 0h8.652v18.023H0z"/>
    </defs>
    <g fill="none" fill-rule="evenodd">
        <path d="M98.066 216.022c16.012-16.037 15.841-40.403 11.22-61.498-.772-3.521-1.065-7.327-3.334-10.13-2.27-2.8-6.622-4.21-9.544-2.138-2.424 1.718-3.017 4.988-4.037 7.787a21.067 21.067 0 0 1-6.916 9.45c-2.057 1.582-4.74 2.806-7.209 1.984-3.388-1.13-4.526-5.287-5.151-8.815l-3.492-19.725c-.625-3.527-1.275-7.128-2.993-10.272-1.718-3.145-4.729-5.81-8.279-6.14-3.55-.327-7.372 2.36-7.453 5.938-.033 1.49.535 2.926.705 4.407.17 1.48-.22 3.222-1.545 3.883-1.341.67-2.945-.073-4.196-.913-4.318-2.894-7.646-7.028-10.806-11.167-3.162-4.138-6.275-8.396-10.311-11.676-4.038-3.28-9.203-5.523-14.34-4.89-5.137.634-9.984 4.728-10.36 9.915-.376 5.201 3.47 9.713 7.386 13.16a80.617 80.617 0 0 0 19.367 12.628c1.264.587 2.634 1.22 3.3 2.447 1.203 2.21-.612 4.948-2.806 6.143-2.487 1.353-5.409 1.6-8.118 2.424-2.709.824-5.486 2.579-6.057 5.364-.792 3.865 2.935 7.091 6.375 9.024a69.344 69.344 0 0 0 22.208 7.88c2.786.476 5.687.811 8.128 2.252 2.44 1.441 4.293 4.378 3.476 7.09-.818 2.714-3.938 4.1-6.767 4.09-2.827-.008-5.546-1.04-8.333-1.546-5.215-.945-11.455.528-13.813 5.279-1.549 3.123-1.026 6.986.615 10.077 1.64 3.091 4.266 5.536 6.981 7.736 9.491 7.691 20.849 13.214 32.884 15.062 12.034 1.85 22.715 1.008 33.215-5.11" fill="#CDE3E4"/>
        <path d="M101 231.872c-2.32-8.297-6.002-17.924-11.136-28.09-5.116-10.176-11.652-20.868-18.876-31.818l-5.377-8.088c-1.772-2.65-3.528-5.28-5.406-7.745-3.734-4.947-7.703-9.421-11.604-13.55-3.9-4.133-7.753-7.913-11.38-11.42-3.639-3.502-7.09-6.702-10.362-9.485-6.527-5.594-12.317-9.475-16.402-11.978a119.737 119.737 0 0 0-4.76-2.795c-.53-.29-.944-.518-1.257-.688-.286-.152-.435-.224-.44-.215-.007.01.132.103.406.275l1.226.744c1.08.65 2.673 1.609 4.69 2.898a135.59 135.59 0 0 1 16.234 12.118c3.243 2.797 6.668 6.01 10.282 9.524 3.61 3.524 7.443 7.312 11.321 11.445 3.878 4.13 7.822 8.597 11.529 13.522 1.863 2.454 3.602 5.062 5.375 7.72l5.373 8.085c7.217 10.941 13.753 21.598 18.884 31.73 5.148 10.118 8.861 19.688 11.229 27.939" fill="#FFF"/>
        <path d="M59.938 156c.04-.001.058-.562.061-1.577a113.34 113.34 0 0 0-.088-4.296c-.122-3.627-.44-8.628-.807-14.14-.368-5.515-.622-10.506-.697-14.123a223.7 223.7 0 0 1-.066-4.286c-.008-1.013-.031-1.575-.071-1.578-.04-.001-.091.557-.151 1.57-.066 1.012-.106 2.48-.116 4.296-.03 3.632.162 8.65.53 14.169l.973 14.116.27 4.28c.067 1.01.122 1.57.162 1.569" fill="#FFF"/>
        <path d="M13 155.758c.007.047.668.003 1.853-.118 1.184-.113 2.9-.286 5.022-.429 4.246-.322 10.124-.552 16.621-.51 6.498.052 12.377.361 16.623.711 2.125.16 3.84.337 5.028.453 1.187.12 1.846.164 1.853.116.006-.048-.643-.182-1.823-.385a84.617 84.617 0 0 0-5.019-.674c-4.247-.476-10.143-.863-16.661-.919-6.516-.04-12.414.27-16.662.718a74.264 74.264 0 0 0-5.016.65c-1.178.205-1.825.339-1.819.387" fill="#FFF"/>
        <path d="M90.007 203c.022.006.092-.204.205-.609l.466-1.78c.397-1.546.915-3.8 1.518-6.594 1.212-5.587 2.649-13.358 4.12-21.954 1.473-8.6 2.836-16.374 3.933-21.979l1.316-6.635c.14-.722.255-1.318.348-1.807.074-.414.102-.635.08-.642-.022-.004-.091.205-.206.61l-.465 1.78c-.397 1.546-.915 3.8-1.518 6.594-1.213 5.587-2.648 13.358-4.12 21.958-1.473 8.597-2.837 16.37-3.932 21.976-.543 2.725-.986 4.968-1.317 6.633l-.349 1.807c-.073.416-.1.637-.079.642" fill="#263238"/>
        <path d="M25 194.015c-.001.022.22.065.645.13l1.863.253 6.856.863c5.788.732 13.77 1.827 22.589 3.05 8.822 1.224 16.824 2.251 22.63 2.869 2.902.31 5.255.539 6.883.665.752.055 1.372.098 1.876.136.43.024.657.026.658.003.002-.02-.22-.065-.645-.13l-1.862-.252-6.855-.864c-5.789-.73-13.772-1.826-22.594-3.049-8.819-1.224-16.819-2.251-22.625-2.868-2.903-.312-5.255-.54-6.884-.667-.753-.053-1.37-.1-1.876-.135-.43-.024-.656-.026-.659-.004" fill="#FFF"/>
        <path d="M435.963 192c3.134-2.457 4.535-6.807 3.879-10.761-.654-3.954-3.178-7.454-6.448-9.721-1.512-1.049-3.386-1.88-5.144-1.357-1.644.489-2.788 2.106-3.122 3.806-.333 1.7.027 3.465.587 5.103 1.923 5.616 4.803 10.695 10.248 12.93M441.24 201.677c6.098-5.577 14.99-7.91 23.031-6.044 2.048.474 4.352 1.559 4.689 3.64.338 2.083-1.517 3.849-3.34 4.908-7.577 4.405-17.843 3.577-24.62-1.987M470.865 158.383c-3.458-.931-7.25-.093-10.31 1.742-3.06 1.836-5.456 4.59-7.373 7.567-3.71 5.757-5.018 13.495-5.182 20.308 7.698-.306 14.276-6.25 17.422-9.47 4.97-5.092 10.804-17.256 5.443-20.147" fill="#455A64"/>
        <path d="M429 212c.47-.796 1.239-1.357 2.005-2.818 1.508-2.918 3.54-7.067 4.526-12.006.98-4.945.316-9.614-1.003-12.664-.644-1.532-1.364-2.69-1.943-3.43-.577-.744-.958-1.107-.994-1.08-.139.083 1.283 1.652 2.397 4.692 1.145 3.01 1.699 7.529.744 12.348-.958 4.821-2.877 8.952-4.247 11.916" fill="#263238"/>
        <path d="m429.238 212 3.928-5.07a1352.72 1352.72 0 0 1 13.03-16.659c5.146-6.46 9.882-12.246 13.321-16.427l4.06-4.963c.953-1.177 1.46-1.845 1.42-1.88-.04-.034-.623.569-1.643 1.688a246.578 246.578 0 0 0-4.249 4.808c-3.546 4.094-8.353 9.833-13.503 16.298-5.15 6.47-9.669 12.44-12.867 16.813a256.303 256.303 0 0 0-3.735 5.215" fill="#263238"/>
        <path d="M459 200.007c.012-.052-.45-.194-1.303-.408-.425-.115-.95-.234-1.57-.307-.618-.08-1.32-.216-2.107-.231-1.57-.126-3.451-.058-5.519.215a31.073 31.073 0 0 0-6.548 1.747 31.463 31.463 0 0 0-5.983 3.244c-1.704 1.229-3.135 2.482-4.21 3.66-.569.556-.999 1.141-1.4 1.63-.409.482-.717.932-.954 1.312-.488.747-.419 1.097-.376 1.127.121.09.886-1.485 3.11-3.68 1.101-1.106 2.536-2.288 4.221-3.455a33.583 33.583 0 0 1 5.867-3.113 33.312 33.312 0 0 1 6.378-1.765c2.011-.305 3.85-.428 5.39-.374 3.089.08 4.975.548 5.004.398" fill="#263238"/>
        <g>
            <path fill="#AED2C8" d="M92.644 218h338.13V24.685H92.644z"/>
            <path fill="#61A7A9" d="M99.664 190.174h49.242v-49.316H99.664z"/>
            <path fill="#4B9294" d="M105.026 145.826h43.88v-4.968H99.663v49.316h5.363z"/>
            <path d="M100.89 188.947h46.79v-46.861h-46.79v46.86zm-2.452 2.456h51.694V139.63H98.438v51.772z" fill="#FFF"/>
            <path fill="#FFF" d="M99.664 159.934h49.242v-2.456H99.664z"/>
            <g fill="#FFF" opacity=".1">
                <path d="m107.156 173.344 7.62-4.094-4.464 4.595 3.967-3.25-11.652 15.318c8.894-7.947 18.79-14.71 29.074-20.744l-15.964 9.24c3.708-3.32 7.431-6.654 10.625-10.473l-8.322 5.6a29.81 29.81 0 0 1 4.036-4.813l-8.305 5.552a75.322 75.322 0 0 0 5.932-7.234 75.014 75.014 0 0 0-6.991 4.792c1.105-.921 2.705-2.376 3.384-3.58-1.675-.256-3.184 2.317-4.138 3.396a164.091 164.091 0 0 0-4.802 5.695M106.3 150.381l4.202-2.058-2.15 2.064c.27.06.55.064.823.015a17.94 17.94 0 0 0-3.346 4.602 105.018 105.018 0 0 1 11.56-8.263l-4.29 5.562 12.78-7.602-5.85 2.853c.64-.674 1.28-1.347 1.922-2.02l-3.01 1.687a3.138 3.138 0 0 1 1.012-1.954c-.937.24-1.85.568-2.726.979a1.674 1.674 0 0 1-.063-1.193 64.68 64.68 0 0 1-9.104 5.046l5.782-5.571a8.936 8.936 0 0 0-4.064 2.623c.661-.844 1.518-1.533 2.178-2.34-2.372.659-3.493 4.51-5.657 5.57"/>
            </g>
            <path fill="#61A7A9" d="M155.797 190.174h49.243v-49.316h-49.243z"/>
            <path fill="#4B9294" d="M161.16 145.826h43.88v-4.968h-49.243v49.316h5.362z"/>
            <path d="M157.023 188.947h46.79v-46.861h-46.79v46.86zm-2.453 2.456h51.695V139.63H154.57v51.772z" fill="#FFF"/>
            <path fill="#FFF" d="M155.797 159.934h49.243v-2.456h-49.243z"/>
            <g fill="#FFF" opacity=".1">
                <path d="m163.289 173.344 7.62-4.094-4.463 4.595 3.966-3.25-11.651 15.318c8.893-7.947 18.79-14.71 29.073-20.744l-15.964 9.24c3.708-3.32 7.431-6.654 10.625-10.473l-8.321 5.6a29.81 29.81 0 0 1 4.035-4.813l-8.305 5.552a75.39 75.39 0 0 0 5.932-7.234 75.014 75.014 0 0 0-6.991 4.792c1.105-.921 2.705-2.376 3.384-3.58-1.675-.256-3.184 2.317-4.137 3.396a164.091 164.091 0 0 0-4.803 5.695M162.432 150.381l4.203-2.058-2.15 2.064c.27.06.551.064.823.015a17.94 17.94 0 0 0-3.346 4.602 105.018 105.018 0 0 1 11.56-8.263l-4.29 5.562 12.78-7.602-5.85 2.853c.64-.674 1.28-1.347 1.922-2.02l-3.01 1.687a3.138 3.138 0 0 1 1.012-1.954c-.937.24-1.85.568-2.726.979a1.674 1.674 0 0 1-.063-1.193 64.68 64.68 0 0 1-9.104 5.046l5.782-5.571a8.936 8.936 0 0 0-4.064 2.623c.661-.844 1.519-1.533 2.178-2.34-2.372.659-3.493 4.51-5.657 5.57"/>
            </g>
            <path fill="#61A7A9" d="M317.896 190.174h49.243v-49.316h-49.243z"/>
            <path fill="#4B9294" d="M323.258 145.826h43.88v-4.968h-49.243v49.316h5.363z"/>
            <path d="M319.121 188.947h46.791v-46.861h-46.79v46.86zm-2.451 2.456h51.694V139.63H316.67v51.772z" fill="#FFF"/>
            <path fill="#FFF" d="M317.896 159.934h49.243v-2.456h-49.243z"/>
            <g fill="#FFF" opacity=".1">
                <path d="m325.388 173.344 7.62-4.094-4.464 4.595 3.967-3.25-11.651 15.318c8.893-7.947 18.79-14.71 29.073-20.744l-15.964 9.24c3.708-3.32 7.431-6.654 10.625-10.473l-8.322 5.6a29.785 29.785 0 0 1 4.036-4.813l-8.305 5.552a75.39 75.39 0 0 0 5.932-7.234 75.014 75.014 0 0 0-6.991 4.792c1.105-.921 2.705-2.376 3.384-3.58-1.675-.256-3.184 2.317-4.138 3.396a164.091 164.091 0 0 0-4.802 5.695M324.531 150.381l4.202-2.058-2.15 2.064c.27.06.552.064.823.015a17.927 17.927 0 0 0-3.345 4.602 104.965 104.965 0 0 1 11.56-8.263l-4.29 5.562 12.78-7.602-5.85 2.853c.64-.674 1.28-1.347 1.922-2.02l-3.01 1.687a3.138 3.138 0 0 1 1.012-1.954c-.937.24-1.851.568-2.727.979a1.674 1.674 0 0 1-.063-1.193 64.68 64.68 0 0 1-9.103 5.046l5.781-5.571a8.936 8.936 0 0 0-4.063 2.623c.66-.844 1.518-1.533 2.178-2.34-2.372.659-3.493 4.51-5.657 5.57"/>
            </g>
            <path fill="#61A7A9" d="M374.029 190.174h49.243v-49.316h-49.243z"/>
            <path fill="#4B9294" d="M379.391 145.826h43.88v-4.968H374.03v49.316h5.362z"/>
            <path d="M375.255 188.947h46.79v-46.861h-46.79v46.86zm-2.453 2.456h51.696V139.63h-51.696v51.772z" fill="#FFF"/>
            <path fill="#FFF" d="M374.029 159.934h49.243v-2.456h-49.243z"/>
            <g fill="#FFF" opacity=".1">
                <path d="m381.52 173.344 7.62-4.094-4.462 4.595 3.966-3.25-11.652 15.318c8.894-7.947 18.79-14.71 29.074-20.744l-15.964 9.24c3.708-3.32 7.431-6.654 10.625-10.473l-8.321 5.6a29.81 29.81 0 0 1 4.035-4.813l-8.305 5.552a75.39 75.39 0 0 0 5.932-7.234 75.014 75.014 0 0 0-6.991 4.792c1.105-.921 2.705-2.376 3.384-3.58-1.675-.256-3.184 2.317-4.137 3.396a164.091 164.091 0 0 0-4.803 5.695M380.664 150.381l4.203-2.058-2.15 2.064c.27.06.55.064.823.015a17.927 17.927 0 0 0-3.346 4.602 105.012 105.012 0 0 1 11.56-8.263l-4.29 5.562 12.78-7.602-5.85 2.853c.64-.674 1.28-1.347 1.922-2.02l-3.01 1.687a3.138 3.138 0 0 1 1.012-1.954c-.937.24-1.85.568-2.726.979a1.674 1.674 0 0 1-.063-1.193 64.68 64.68 0 0 1-9.104 5.046l5.782-5.571a8.936 8.936 0 0 0-4.064 2.623c.661-.844 1.519-1.533 2.178-2.34-2.372.659-3.493 4.51-5.657 5.57"/>
            </g>
            <path fill="#077579" d="M90.978 218h342.016v-19.911H90.978z"/>
            <path fill="#B0CBC3" d="M202.26 218h118.9v-6.864h-118.9zM206.88 211.136h109.658v-6.863H206.88z"/>
            <path fill="#B0CBC3" d="M212.241 204.952h98.936v-6.863H212.24z"/>
            <path fill="#FFF" d="M217.97 199.896h3.934v-70.227h-3.935zM301.596 199.406h3.935V129.67h-3.935z"/>
            <path fill="#FFF" d="M206.88 137.857h107.74v-8.188H206.88zM234.691 198.09h57.632v-43.086h-57.632z"/>
            <path fill="#61A7A9" d="M237.198 198.09h25.182v-40.852h-25.182z"/>
            <path fill="#4B9294" d="M239.775 159.823h22.605v-2.581h-25.182v40.85h2.577z"/>
            <path fill="#61A7A9" d="M264.765 198.09h25.182v-40.852h-25.182z"/>
            <g fill="#FFF" opacity=".1">
                <path d="M262.38 174.384c-8.384 7.771-16.902 15.408-24.72 23.709h6.437c2.11-2.136 4.26-4.23 6.524-6.2 3.718-3.237 7.718-6.131 11.759-8.97v-8.539zM262.38 164.346v-7.104h-2.307l-22.875 22.738v6.005a420.474 420.474 0 0 1 25.182-21.64M243.577 157.242a215.35 215.35 0 0 0-6.38 6.731v5.292l4.931-4.527c2.748-2.523 5.505-5.04 8.311-7.496h-6.862z"/>
            </g>
            <path fill="#4B9294" d="M267.343 159.823h22.604v-2.581h-25.182v40.85h2.578z"/>
            <g fill="#FFF" opacity=".1">
                <path d="M289.947 174.384c-8.384 7.771-16.901 15.408-24.72 23.709h6.437c2.111-2.136 4.261-4.23 6.525-6.2 3.717-3.237 7.716-6.131 11.758-8.97v-8.539zM289.947 164.346v-7.104h-2.307l-22.875 22.738v6.005a420.474 420.474 0 0 1 25.182-21.64M271.144 157.242a215.35 215.35 0 0 0-6.38 6.731v5.292l4.932-4.527c2.748-2.523 5.504-5.04 8.31-7.496h-6.862z"/>
            </g>
            <path fill="#FFF" d="M258.13 189.404h.604v-17.791h-.604zM269.488 189.404h.604v-17.791h-.604z"/>
            <path fill="#077579" d="M203.527 131.715h113.261v-4.765H203.527z"/>
            <path fill="#FFF" d="M102.627 116.757h26.782v-35.03h-26.782z"/>
            <path fill="#61A7A9" d="M104.386 115.006h23.005V83.748h-23.005z"/>
            <path fill="#4B9294" d="M107.053 85.529h20.338v-1.782h-23.005v31.259h2.667z"/>
            <path d="m106.648 98.729 8.025-7.076-2.646 4.036c.44-.32.879-.642 1.318-.963l-6.602 11.188c3.35-3.483 6.815-6.918 10.882-9.526l-8.373 14.76 12.861-12.934c.128-.128.264-.326.158-.473l-3.29 2.77a17.39 17.39 0 0 1 2.808-3.708c-.726.845-1.467 1.703-2.41 2.293l5.101-7.792c.26-.397.435-1.076-.016-1.221-.223-.072-.454.065-.647.198a46.665 46.665 0 0 0-3.63 2.78c-1.205 1.02-2.39 2.12-3.85 2.72a72.517 72.517 0 0 0 6.49-9.077l-5.88 4.509c.272-.804.783-1.502 1.286-2.186a13.724 13.724 0 0 1-2.12 1.917l.307-1.104a3.968 3.968 0 0 1-1.438.666 128.119 128.119 0 0 1 1.785-4.565l-5.085 5.453c.583-.626 1.016-1.565 1.461-2.297.38-.625 1.21-1.635 1.223-2.308-1.59 1.53-2.788 3.945-3.984 5.807a147.3 147.3 0 0 0-3.734 6.133" fill="#FFF" opacity=".1"/>
            <path fill="#FFF" d="M103.58 95.874h24.888v-1.887h-24.889zM140.718 116.892h26.781v-35.03h-26.781z"/>
            <path fill="#61A7A9" d="M142.477 115.14h23.005V83.883h-23.005z"/>
            <path fill="#4B9294" d="M145.144 85.663h20.338v-1.78h-23.005v31.257h2.667z"/>
            <path d="m144.738 98.864 8.025-7.076-2.646 4.036c.44-.32.88-.642 1.319-.963l-6.603 11.187c3.35-3.483 6.815-6.918 10.883-9.526l-8.374 14.762 12.861-12.935c.128-.129.264-.326.158-.473l-3.289 2.77a17.39 17.39 0 0 1 2.807-3.709c-.726.845-1.467 1.704-2.41 2.294l5.102-7.792c.26-.397.434-1.076-.017-1.222-.223-.071-.454.066-.647.2a46.665 46.665 0 0 0-3.63 2.778c-1.204 1.02-2.39 2.122-3.85 2.72a72.548 72.548 0 0 0 6.49-9.075l-5.88 4.508c.272-.805.783-1.502 1.286-2.186a13.724 13.724 0 0 1-2.12 1.917l.308-1.105a3.968 3.968 0 0 1-1.44.667 128.119 128.119 0 0 1 1.786-4.566l-5.085 5.454c.584-.626 1.017-1.565 1.462-2.298.379-.624 1.21-1.634 1.222-2.307-1.589 1.53-2.787 3.945-3.984 5.807a147.3 147.3 0 0 0-3.734 6.133" fill="#FFF" opacity=".1"/>
            <path fill="#FFF" d="M141.67 96.008h24.888v-1.886h-24.889zM190.821 116.96h26.782V81.928H190.82z"/>
            <path fill="#61A7A9" d="M192.58 115.208h23.005V83.949H192.58z"/>
            <path fill="#4B9294" d="M195.247 85.73h20.338v-1.78H192.58v31.258h2.667z"/>
            <path d="m194.842 98.931 8.025-7.075-2.646 4.035c.44-.32.879-.642 1.318-.963l-6.602 11.188c3.35-3.483 6.815-6.918 10.882-9.526l-8.373 14.761 12.86-12.935c.129-.128.265-.326.159-.473l-3.29 2.77a17.405 17.405 0 0 1 2.807-3.708c-.725.845-1.466 1.703-2.41 2.294l5.102-7.793c.26-.397.435-1.076-.016-1.221-.223-.072-.454.065-.647.198a46.58 46.58 0 0 0-3.63 2.78c-1.205 1.02-2.39 2.121-3.85 2.72a72.548 72.548 0 0 0 6.49-9.076l-5.881 4.508c.273-.804.784-1.502 1.287-2.186a13.724 13.724 0 0 1-2.12 1.917l.307-1.104a3.975 3.975 0 0 1-1.439.666 129.058 129.058 0 0 1 1.786-4.565l-5.086 5.453c.584-.626 1.017-1.565 1.462-2.297.38-.625 1.21-1.635 1.223-2.308-1.59 1.53-2.788 3.946-3.984 5.807a146.962 146.962 0 0 0-3.734 6.133" fill="#FFF" opacity=".1"/>
            <path fill="#FFF" d="M191.773 96.076h24.888v-1.887h-24.888zM228.912 117.094h26.782v-35.03h-26.782z"/>
            <path fill="#61A7A9" d="M230.67 115.343h23.005V84.084H230.67z"/>
            <path fill="#4B9294" d="M233.338 85.865h20.337v-1.78H230.67v31.258h2.668z"/>
            <path d="m232.932 99.066 8.025-7.076-2.646 4.036c.44-.32.88-.642 1.318-.963-2.2 3.73-4.401 7.458-6.602 11.187 3.35-3.482 6.815-6.917 10.883-9.526l-8.374 14.762 12.861-12.935c.128-.129.264-.326.158-.473l-3.29 2.77a17.405 17.405 0 0 1 2.808-3.709c-.726.845-1.466 1.704-2.41 2.294l5.101-7.792c.26-.397.435-1.076-.016-1.221-.223-.072-.454.065-.647.198a46.58 46.58 0 0 0-3.63 2.78c-1.205 1.02-2.39 2.12-3.85 2.72a72.517 72.517 0 0 0 6.49-9.077l-5.88 4.509c.272-.805.783-1.502 1.286-2.186-.637.71-1.35 1.354-2.12 1.917l.308-1.105a3.96 3.96 0 0 1-1.44.667 129.06 129.06 0 0 1 1.786-4.566l-5.085 5.454c.584-.626 1.017-1.565 1.462-2.297.38-.626 1.209-1.635 1.222-2.308-1.589 1.53-2.787 3.945-3.984 5.807a147.3 147.3 0 0 0-3.734 6.133" fill="#FFF" opacity=".1"/>
            <path fill="#FFF" d="M229.863 96.21h24.889v-1.886h-24.889zM278.741 117.672h26.782v-35.03H278.74z"/>
            <path fill="#61A7A9" d="M280.5 115.92h23.005V84.662H280.5z"/>
            <path fill="#4B9294" d="M283.167 86.443h20.338v-1.781H280.5v31.258h2.667z"/>
            <path d="m282.762 99.643 8.024-7.075-2.645 4.036 1.318-.963-6.603 11.187c3.351-3.483 6.815-6.918 10.883-9.526l-8.374 14.762 12.862-12.935c.128-.129.263-.326.157-.473l-3.289 2.77a17.405 17.405 0 0 1 2.807-3.709c-.725.845-1.466 1.703-2.41 2.294l5.102-7.792c.26-.397.435-1.076-.017-1.222-.223-.072-.454.066-.646.199a46.58 46.58 0 0 0-3.63 2.779c-1.205 1.02-2.39 2.121-3.851 2.72a72.548 72.548 0 0 0 6.49-9.076l-5.88 4.509c.272-.805.783-1.503 1.287-2.187a13.724 13.724 0 0 1-2.12 1.918l.307-1.105a3.968 3.968 0 0 1-1.439.666 129.06 129.06 0 0 1 1.785-4.565l-5.085 5.454c.584-.626 1.017-1.565 1.462-2.298.38-.625 1.21-1.635 1.222-2.307-1.588 1.53-2.787 3.945-3.984 5.807a146.962 146.962 0 0 0-3.733 6.132" fill="#FFF" opacity=".1"/>
            <path fill="#FFF" d="M279.692 96.788h24.889v-1.886h-24.889zM316.831 117.806h26.782v-35.03h-26.782z"/>
            <path fill="#61A7A9" d="M318.59 116.055h23.005V84.797H318.59z"/>
            <path fill="#4B9294" d="M321.257 86.578h20.338v-1.781H318.59v31.258h2.667z"/>
            <path d="m320.852 99.778 8.025-7.075-2.646 4.036 1.318-.963-6.602 11.186c3.35-3.482 6.815-6.917 10.882-9.525l-8.373 14.761 12.861-12.935c.128-.128.264-.325.158-.473l-3.29 2.77a17.39 17.39 0 0 1 2.808-3.708c-.726.845-1.467 1.703-2.41 2.294l5.101-7.793c.26-.397.435-1.076-.016-1.221-.223-.072-.454.066-.647.199a46.58 46.58 0 0 0-3.63 2.778c-1.205 1.02-2.39 2.122-3.85 2.72a72.517 72.517 0 0 0 6.49-9.075l-5.88 4.508c.272-.804.783-1.502 1.286-2.186-.638.71-1.35 1.354-2.12 1.918l.307-1.105a3.968 3.968 0 0 1-1.439.666 129.058 129.058 0 0 1 1.786-4.565l-5.086 5.453c.584-.626 1.017-1.565 1.462-2.297.38-.625 1.21-1.635 1.223-2.308-1.59 1.53-2.788 3.946-3.984 5.807a147.298 147.298 0 0 0-3.734 6.133" fill="#FFF" opacity=".1"/>
            <path fill="#FFF" d="M317.783 96.923h24.888v-1.887h-24.888zM357.783 117.874h26.782v-35.03h-26.782z"/>
            <path fill="#61A7A9" d="M359.542 116.122h23.005V84.864h-23.005z"/>
            <path fill="#4B9294" d="M362.21 86.645h20.337v-1.78h-23.005v31.257h2.667z"/>
            <path d="m361.804 99.846 8.024-7.076-2.645 4.036 1.318-.963-6.603 11.187c3.35-3.483 6.815-6.918 10.883-9.526l-8.374 14.762 12.862-12.935c.128-.129.264-.326.158-.473l-3.29 2.77a17.402 17.402 0 0 1 2.807-3.709c-.725.845-1.466 1.703-2.41 2.294l5.102-7.792c.26-.397.434-1.076-.017-1.222-.222-.072-.454.066-.646.199a46.702 46.702 0 0 0-3.63 2.779c-1.205 1.02-2.39 2.121-3.851 2.72a72.548 72.548 0 0 0 6.491-9.075l-5.881 4.508c.272-.805.784-1.503 1.287-2.187a13.724 13.724 0 0 1-2.12 1.918l.307-1.104a3.975 3.975 0 0 1-1.439.666 128.118 128.118 0 0 1 1.785-4.566l-5.085 5.454c.584-.626 1.017-1.565 1.462-2.298.38-.625 1.21-1.634 1.223-2.307-1.59 1.53-2.788 3.945-3.984 5.807a146.962 146.962 0 0 0-3.734 6.133" fill="#FFF" opacity=".1"/>
            <path fill="#FFF" d="M358.735 96.99h24.888v-1.886h-24.888zM395.873 118.008h26.782v-35.03h-26.782z"/>
            <path fill="#61A7A9" d="M397.632 116.257h23.005V85h-23.005z"/>
            <path fill="#4B9294" d="M400.3 86.78h20.337v-1.781h-23.005v31.258h2.667z"/>
            <path d="m399.894 99.98 8.025-7.075-2.646 4.036 1.318-.963-6.602 11.187c3.35-3.483 6.815-6.918 10.882-9.526l-8.373 14.761 12.861-12.934c.128-.13.264-.326.158-.474-1.097.924-2.193 1.848-3.29 2.77a17.39 17.39 0 0 1 2.808-3.708c-.726.845-1.467 1.703-2.41 2.294l5.101-7.793c.26-.396.435-1.076-.016-1.221-.223-.072-.454.066-.647.199a46.58 46.58 0 0 0-3.63 2.779c-1.205 1.02-2.39 2.121-3.85 2.72a72.517 72.517 0 0 0 6.49-9.076l-5.88 4.508c.272-.804.783-1.502 1.286-2.186-.637.71-1.35 1.355-2.12 1.918l.307-1.105a3.967 3.967 0 0 1-1.438.666 128.118 128.118 0 0 1 1.785-4.565l-5.085 5.453c.583-.625 1.016-1.564 1.461-2.297.38-.625 1.21-1.634 1.223-2.308-1.589 1.531-2.788 3.946-3.984 5.807a147.3 147.3 0 0 0-3.734 6.133" fill="#FFF" opacity=".1"/>
            <path fill="#FFF" d="M396.825 97.125h24.889v-1.887h-24.889zM102.366 70.687h26.782v-35.03h-26.782z"/>
            <path fill="#61A7A9" d="M104.125 68.935h23.005V37.677h-23.005z"/>
            <path fill="#4B9294" d="M106.792 39.458h20.338v-1.78h-23.005v31.257h2.667z"/>
            <path d="m106.387 52.658 8.024-7.075-2.645 4.036 1.318-.963-6.603 11.187c3.35-3.483 6.815-6.918 10.883-9.526L108.99 65.08l12.862-12.935c.128-.13.263-.326.157-.474l-3.289 2.771a17.402 17.402 0 0 1 2.807-3.71c-.725.846-1.466 1.704-2.41 2.295l5.102-7.793c.26-.396.434-1.076-.017-1.22-.223-.073-.454.065-.646.198a46.58 46.58 0 0 0-3.63 2.779c-1.205 1.02-2.39 2.121-3.851 2.72a72.548 72.548 0 0 0 6.49-9.076l-5.88 4.508c.272-.804.783-1.502 1.287-2.186a13.7 13.7 0 0 1-2.12 1.918l.307-1.105a3.975 3.975 0 0 1-1.439.666 128.119 128.119 0 0 1 1.785-4.565l-5.085 5.453c.584-.625 1.017-1.564 1.462-2.297.38-.625 1.21-1.634 1.222-2.307-1.588 1.53-2.787 3.945-3.984 5.807a146.962 146.962 0 0 0-3.733 6.132" fill="#FFF" opacity=".1"/>
            <path fill="#FFF" d="M103.318 49.803h24.888v-1.886h-24.888zM140.456 70.821h26.782v-35.03h-26.782z"/>
            <path fill="#61A7A9" d="M142.215 69.07h23.005V37.812h-23.005z"/>
            <path fill="#4B9294" d="M144.882 39.593h20.338v-1.781h-23.005V69.07h2.667z"/>
            <path d="m144.477 52.793 8.025-7.075-2.646 4.035 1.318-.962-6.602 11.186c3.35-3.482 6.815-6.917 10.882-9.525l-8.373 14.761 12.86-12.935c.129-.128.265-.325.159-.473l-3.29 2.77a17.39 17.39 0 0 1 2.808-3.708c-.726.845-1.467 1.703-2.41 2.294l5.101-7.793c.26-.397.435-1.076-.016-1.221-.223-.072-.454.065-.647.199a46.58 46.58 0 0 0-3.63 2.778c-1.205 1.02-2.39 2.122-3.85 2.72a72.517 72.517 0 0 0 6.49-9.075l-5.881 4.508c.273-.804.784-1.502 1.287-2.186-.638.71-1.35 1.354-2.12 1.918l.307-1.105a3.968 3.968 0 0 1-1.439.666 128.119 128.119 0 0 1 1.786-4.565l-5.086 5.453c.584-.626 1.017-1.565 1.462-2.297.38-.625 1.21-1.635 1.223-2.308-1.59 1.53-2.788 3.946-3.984 5.807a147.3 147.3 0 0 0-3.734 6.133" fill="#FFF" opacity=".1"/>
            <path fill="#FFF" d="M141.408 49.938h24.889V48.05h-24.889zM190.56 70.889h26.781v-35.03H190.56z"/>
            <path fill="#61A7A9" d="M192.319 69.137h23.005V37.88h-23.005z"/>
            <path fill="#4B9294" d="M194.986 39.66h20.338V37.88h-23.005v31.258h2.667z"/>
            <path d="m194.58 52.86 8.025-7.075-2.646 4.036 1.319-.963-6.603 11.187c3.35-3.483 6.815-6.918 10.883-9.526l-8.374 14.762 12.861-12.935c.128-.129.264-.326.158-.473l-3.289 2.77a17.39 17.39 0 0 1 2.807-3.709c-.726.845-1.466 1.703-2.41 2.294 1.7-2.597 3.4-5.195 5.102-7.792.26-.397.434-1.076-.017-1.222-.223-.072-.454.066-.646.199a46.58 46.58 0 0 0-3.63 2.779c-1.206 1.02-2.39 2.121-3.851 2.72a72.517 72.517 0 0 0 6.49-9.076l-5.88 4.509c.272-.805.783-1.503 1.286-2.187-.637.71-1.349 1.355-2.12 1.918l.308-1.105a3.968 3.968 0 0 1-1.44.667 128.118 128.118 0 0 1 1.786-4.566l-5.085 5.454c.584-.626 1.017-1.565 1.462-2.298.379-.625 1.21-1.635 1.222-2.307-1.589 1.53-2.787 3.945-3.984 5.806a147.298 147.298 0 0 0-3.734 6.134" fill="#FFF" opacity=".1"/>
            <path fill="#FFF" d="M191.511 50.005H216.4V48.12H191.51zM228.65 71.023h26.782v-35.03H228.65z"/>
            <path fill="#61A7A9" d="M230.409 69.272h23.005V38.014h-23.005z"/>
            <path fill="#4B9294" d="M233.076 39.795h20.338v-1.781h-23.005v31.258h2.667z"/>
            <path d="m232.67 52.995 8.025-7.075-2.645 4.036 1.318-.963-6.602 11.187c3.35-3.483 6.814-6.918 10.882-9.526l-8.374 14.762 12.862-12.936c.128-.128.264-.325.158-.473l-3.29 2.77a17.39 17.39 0 0 1 2.807-3.708c-.725.845-1.466 1.703-2.41 2.294l5.102-7.793c.26-.397.435-1.076-.017-1.221-.222-.072-.454.066-.646.199a46.58 46.58 0 0 0-3.63 2.778c-1.205 1.02-2.39 2.122-3.85 2.72a72.517 72.517 0 0 0 6.49-9.075l-5.881 4.508c.273-.804.784-1.502 1.287-2.186a13.724 13.724 0 0 1-2.12 1.918l.307-1.105a3.968 3.968 0 0 1-1.439.666 129.056 129.056 0 0 1 1.786-4.565l-5.086 5.453c.584-.626 1.017-1.565 1.462-2.297.38-.625 1.21-1.635 1.223-2.308-1.59 1.53-2.788 3.946-3.984 5.807a147.298 147.298 0 0 0-3.734 6.133" fill="#FFF" opacity=".1"/>
            <path fill="#FFF" d="M229.602 50.14h24.888v-1.887h-24.888zM278.48 71.601h26.781v-35.03H278.48z"/>
            <path fill="#61A7A9" d="M280.238 69.85h23.005V38.59h-23.005z"/>
            <path fill="#4B9294" d="M282.906 40.373h20.337v-1.781h-23.005V69.85h2.668z"/>
            <path d="m282.5 53.573 8.025-7.076-2.646 4.037 1.318-.964-6.602 11.188c3.35-3.483 6.815-6.918 10.882-9.526l-8.373 14.761 12.861-12.935c.128-.129.264-.326.158-.473l-3.289 2.77a17.4 17.4 0 0 1 2.807-3.709c-.726.845-1.467 1.704-2.41 2.294l5.101-7.792c.26-.397.435-1.076-.016-1.221-.223-.072-.454.065-.647.198a46.702 46.702 0 0 0-3.63 2.78c-1.205 1.02-2.39 2.12-3.85 2.72a72.547 72.547 0 0 0 6.49-9.076l-5.88 4.508c.272-.805.783-1.502 1.286-2.186a13.7 13.7 0 0 1-2.12 1.917l.308-1.104a3.967 3.967 0 0 1-1.44.666 129.056 129.056 0 0 1 1.786-4.565l-5.085 5.453c.584-.626 1.016-1.565 1.462-2.297.38-.625 1.209-1.635 1.222-2.308-1.589 1.53-2.787 3.945-3.984 5.807a146.962 146.962 0 0 0-3.734 6.133" fill="#FFF" opacity=".1"/>
            <path fill="#FFF" d="M279.431 50.718h24.888V48.83h-24.888zM316.57 71.736h26.782v-35.03H316.57z"/>
            <path fill="#61A7A9" d="M318.329 69.984h23.005V38.726h-23.005z"/>
            <path fill="#4B9294" d="M320.996 40.507h20.338v-1.78h-23.005v31.257h2.667z"/>
            <path d="m320.59 53.708 8.025-7.076-2.646 4.036 1.319-.963-6.603 11.187c3.35-3.483 6.815-6.918 10.883-9.526l-8.374 14.762 12.861-12.935c.128-.129.264-.326.158-.473l-3.289 2.77a17.39 17.39 0 0 1 2.807-3.709c-.726.845-1.466 1.704-2.41 2.294l5.102-7.792c.26-.397.435-1.076-.017-1.222-.223-.072-.454.066-.646.199a46.58 46.58 0 0 0-3.63 2.779c-1.205 1.02-2.39 2.122-3.851 2.72a72.517 72.517 0 0 0 6.49-9.076l-5.88 4.509c.272-.805.783-1.503 1.287-2.187-.638.71-1.35 1.355-2.12 1.918l.307-1.105a3.968 3.968 0 0 1-1.439.667 128.12 128.12 0 0 1 1.785-4.566l-5.085 5.454c.584-.626 1.017-1.565 1.462-2.298.379-.624 1.21-1.634 1.222-2.307-1.589 1.53-2.787 3.945-3.984 5.807a147.3 147.3 0 0 0-3.733 6.133" fill="#FFF" opacity=".1"/>
            <path fill="#FFF" d="M317.521 50.852h24.889v-1.886H317.52zM357.522 71.803h26.781v-35.03h-26.781z"/>
            <path fill="#61A7A9" d="M359.28 70.052h23.005V38.793H359.28z"/>
            <path fill="#4B9294" d="M361.948 40.575h20.337v-1.781H359.28v31.258h2.668z"/>
            <path d="m361.542 53.775 8.025-7.076-2.646 4.036c.44-.32.88-.642 1.318-.963-2.2 3.73-4.401 7.459-6.602 11.187 3.35-3.482 6.815-6.917 10.882-9.525l-8.373 14.761 12.861-12.935c.128-.128.264-.326.158-.473l-3.29 2.77a17.39 17.39 0 0 1 2.808-3.708c-.726.845-1.467 1.703-2.41 2.294l5.101-7.793c.26-.397.435-1.076-.016-1.221-.223-.072-.454.065-.647.198a46.58 46.58 0 0 0-3.63 2.78c-1.205 1.02-2.39 2.12-3.85 2.72a72.517 72.517 0 0 0 6.49-9.077l-5.88 4.51c.272-.805.783-1.504 1.286-2.187a13.724 13.724 0 0 1-2.12 1.917l.308-1.104a3.968 3.968 0 0 1-1.44.666 128.118 128.118 0 0 1 1.786-4.565l-5.085 5.453c.584-.626 1.016-1.565 1.462-2.297.379-.625 1.209-1.635 1.222-2.308-1.589 1.53-2.787 3.946-3.984 5.807a147.298 147.298 0 0 0-3.734 6.133" fill="#FFF" opacity=".1"/>
            <path fill="#FFF" d="M358.473 50.92h24.889v-1.887h-24.889zM395.612 71.938h26.782v-35.03h-26.782z"/>
            <path fill="#61A7A9" d="M397.37 70.187h23.006V38.929H397.37z"/>
            <path fill="#4B9294" d="M400.038 40.71h20.338v-1.782H397.37v31.258h2.667z"/>
            <path d="m399.633 53.91 8.024-7.076-2.645 4.036c.44-.32.878-.642 1.318-.963-2.2 3.73-4.402 7.458-6.603 11.187 3.351-3.483 6.815-6.918 10.883-9.526l-8.374 14.762 12.862-12.935c.128-.129.263-.326.157-.473l-3.288 2.77a17.383 17.383 0 0 1 2.806-3.709c-.725.845-1.466 1.704-2.41 2.294l5.102-7.792c.26-.397.435-1.076-.017-1.222-.223-.071-.454.066-.646.2a46.58 46.58 0 0 0-3.63 2.778c-1.205 1.02-2.39 2.122-3.851 2.72a72.517 72.517 0 0 0 6.49-9.076l-5.88 4.509c.273-.805.783-1.502 1.287-2.186a13.724 13.724 0 0 1-2.12 1.917l.307-1.105a3.968 3.968 0 0 1-1.439.667 128.118 128.118 0 0 1 1.785-4.566l-5.085 5.454c.584-.626 1.017-1.565 1.462-2.298.38-.624 1.21-1.634 1.222-2.307-1.589 1.53-2.787 3.945-3.984 5.807a147.298 147.298 0 0 0-3.733 6.133" fill="#FFF" opacity=".1"/>
            <path fill="#FFF" d="M396.564 51.054h24.888v-1.886h-24.888z"/>
            <path fill="#077579" d="M86 27.011h350V20.42H86zM104.593.277V7.37h8.186V.277h2.209v16.95h-2.209V9.28h-8.186v7.946h-2.185V.277zM120.106 8.852c0 3.62 1.96 6.865 5.398 6.865 3.466 0 5.425-3.194 5.425-7.04 0-3.37-1.759-6.891-5.399-6.891-3.616 0-5.424 3.345-5.424 7.066m13.132-.277c0 5.834-3.54 8.928-7.86 8.928-4.469 0-7.606-3.471-7.606-8.6 0-5.381 3.339-8.903 7.859-8.903 4.62 0 7.607 3.546 7.607 8.575M135.77 14.561a7.74 7.74 0 0 0 3.916 1.106c2.235 0 3.541-1.182 3.541-2.891 0-1.585-.904-2.49-3.19-3.37-2.76-.981-4.469-2.415-4.469-4.804 0-2.64 2.186-4.602 5.475-4.602 1.732 0 2.988.403 3.741.83l-.602 1.786a6.74 6.74 0 0 0-3.214-.805c-2.311 0-3.19 1.384-3.19 2.54 0 1.585 1.03 2.364 3.366 3.269 2.863 1.106 4.318 2.49 4.318 4.978 0 2.616-1.934 4.879-5.925 4.879-1.633 0-3.416-.477-4.32-1.08l.553-1.836zM150.63 8.651c.478.126 1.08.176 1.81.176 2.636 0 4.243-1.282 4.243-3.621 0-2.238-1.583-3.32-3.993-3.32-.954 0-1.682.075-2.06.176v6.59zM148.447.48a25.33 25.33 0 0 1 4.193-.328c2.16 0 3.741.504 4.746 1.408.93.805 1.482 2.038 1.482 3.546 0 1.535-.452 2.741-1.306 3.621-1.155 1.233-3.038 1.862-5.172 1.862-.653 0-1.256-.026-1.758-.151v6.79h-2.185V.478zM161.8 17.226h2.185V.277H161.8zM171.014 2.137h-5.147V.277h12.53v1.86h-5.173v15.09h-2.21zM186.68 10.184l-1.657-4.877c-.377-1.108-.628-2.113-.88-3.093h-.049a53.217 53.217 0 0 1-.854 3.067l-1.657 4.903h5.097zm-5.549 1.71-1.758 5.332h-2.26l5.75-16.949h2.637l5.775 16.95h-2.335l-1.809-5.332h-6zM193.755.277h2.185V15.39h7.231v1.836h-9.416z"/>
            <path fill="#FFF" d="M212.241 199.797h98.936v-1.708H212.24zM206.88 206.16h109.658v-1.887H206.88zM202.259 213.164h118.9v-2.027h-118.9z"/>
        </g>
        <g>
            <g transform="translate(237 208.37)">
                <mask id="xfs0pi48ub" fill="#fff">
                    <use xlink:href="#isc5wkwfca"/>
                </mask>
                <path d="M.753.393s-.907.83-.73 1.42c.177.59.996.982 1.107 1.703.11.72.553 1.114.951 1.114h1.9s.293-.507-.416-.66c-.708-.153-.975-1-.93-1.786.044-.786-.067-1.835-.067-1.835L1.063 0l-.31.393z" fill="#313131" mask="url(#xfs0pi48ub)"/>
            </g>
            <path d="M249.063 212.97a.3.3 0 0 0 .06.02h5.08c-.045-.178-.208-.515-.802-.61-.794-.127-2.168-.582-2.475-1.583a1.67 1.67 0 0 1-.026-.099c-.244-1.07-2.014.328-2.014.328s-.006.043-.013.115c-.041.393-.146 1.663.19 1.829" fill="#313131"/>
            <path d="M253.19 184.347s-.269 3.31-.585 7.29c-.43 5.406-.946 12.046-.997 13.304-.089 2.184-.443 5.679-.443 5.679s-.84.83-2.523.48c0 0-1.5-4.988-1.928-10.265l-.02-.261c-.398-5.373-1.017-16.686-1.017-16.686l7.513.459z" fill="#0DA4A9"/>
            <path d="M253.19 184.347s-.269 3.31-.585 7.29l-5.89 9.198-.02-.261c-.399-5.373-1.018-16.686-1.018-16.686l7.513.459z" fill="#0C767A"/>
            <path d="M251.962 184.74s-4.847 11.99-8.034 17.624c-3.187 5.635-4.183 7.207-4.183 7.207s-1.826-.72-1.992-1.212c0 0 1.219-10.877 3.353-13.53 1.206-1.498 2.623-5.994 2.69-7.566.066-1.573.43-4.685.43-4.685l7.736 2.162z" fill="#0DA4A9"/>
            <path d="M250.477 162.54c-1.806.562-4.93-.955-4.93-.955s1.408-1.044 1.566-3.208l.005-.09c.01-.16.012-.327.006-.5l.495.393 1.85 1.472s-.095.726-.133 1.935c.293.159.528.334.706.49.293.257.435.463.435.463" fill="#F4AC75"/>
            <path d="M243.542 161.354s4.773-.743 7.918 1.311c0 0 2.136 13.783.276 15.087-1.86 1.304-8.194 0-8.194 0v-16.398z" fill="#F4AC75"/>
            <path d="M249.912 192.578h-8.626s1.002-14.523 1.288-18.059c.233-2.867.725-9.743.902-12.24l.066-.925 2.059-.346 3.537 4.523s.56 12.063.539 13.964c-.02 1.902.223 9.31.235 10.555.01 1.246 0 2.528 0 2.528" fill="#E9F2FF"/>
            <path d="m249.138 165.531.773 27.048h4.064s-.188-17.79-.201-19.424c-.014-1.634.441-8.675-.827-9.768-1.06-.913-3.611-1.8-3.611-1.8l-.198 3.944z" fill="#E9F2FF"/>
            <path d="M249.362 160.963s1.158.788 1.115 1.07c-.044.283-.203.73-.203.73l-.708-.141.598.415s-.678 1.951-1.026 2.494l.224-4.568z" fill="#E9F2FF"/>
            <path d="M242.99 169.02c.507-3.077 6.369 1.47 5.882 5.504-.902 7.465-4.74 15.788-7.586 18.055l1.704-23.56z" fill="#BFDADB"/>
            <path d="M247.113 158.377c-.008-.055-.026-.083-.026-.083l.031-.007.5-.107 1.85 1.472s-.08.686-.137 1.939c-.004-.007-1.906-1.046-2.218-3.214" fill="#C97C47"/>
            <path d="M250.222 160.1s-3.22-.09-3.134-2.068c.087-1.978-.27-3.322 1.79-3.35 2.06-.026 2.427.746 2.56 1.413.134.668-.375 3.977-1.216 4.005" fill="#F4AC75"/>
            <path d="M247.087 158.294s.419.11.751-.327.886-2.12 1.617-2.23c.73-.109 1.694.427 2.005.12.453-.445 1.037-1.175 1.037-1.175s-3.625-2.55-5.072-1.37c-1.447 1.18-1.954 2.906-.338 4.982" fill="#263238"/>
            <path d="M251.437 165.36c-.068-1.225-.746-3.221-.752-3.24l.194.084c.024.08.563 1.902.632 3.154l-.074.003zM246.746 169.02c-.068-.07-1.726-1.644-1.373-2.746.138-.43.392-.599.661-.724.251-.09.837-.184 1.14.004.552.343.83 1.29.913 2.867l-.068.003c-.097-1.87-.585-2.547-.95-2.7-.46-.191-1.264-.112-1.517.613-.175.499.167 1.196.485 1.675.353.532.737 1.004.74 1.008h-.031z" fill="#111"/>
            <path d="M246.918 169.19a.165.165 0 0 1-.23 0l-.114-.112a.16.16 0 0 1 0-.228.166.166 0 0 1 .23 0l.114.112a.16.16 0 0 1 0 .228M248.06 168.722a.163.163 0 0 1-.164-.161v-.159c0-.088.073-.16.163-.16.09 0 .163.072.163.16v.159a.163.163 0 0 1-.163.16" fill="#077579"/>
            <path d="M251.017 165.36a.44.44 0 0 1 .443-.437.44.44 0 0 1 .443.438.44.44 0 0 1-.443.437.44.44 0 0 1-.443-.437" fill="#111"/>
            <path d="M251.251 165.36c0-.122.101-.222.226-.222.124 0 .225.1.225.223 0 .122-.101.222-.225.222a.224.224 0 0 1-.226-.222" fill="#077579"/>
            <path d="M249.453 192.578c-.003-.027-.282-2.751-.202-5.119.034-1 .005-2.177-.022-3.314-.04-1.623-.128-3.185.004-4.204.228-1.744.182-9.669.09-10.528-.092-.837-.005-1.756.08-2.033.085-.282-.282-1.828-.286-1.843l.043-.011c.016.065.413 1.587.324 1.88-.084.275-.208 1.171-.118 2.002.094.86.272 8.784.045 10.53-.133 1.015-.178 2.585-.138 4.206.028 1.138.057 2.315.022 3.316-.08 2.365.327 5.091.33 5.118h-.172z" fill="#BFDADB"/>
            <path d="M256.595 170.822s1.092 1.854-.053 2.342c-1.144.488-1.268-.026-1.268-.026l1.321-2.316zM247.45 171.964s.174.35.155.663c-.02.328-.177.823-.177.823s-6.737 1.415-8.047.232c-1.406-1.27 1.203-10.813 2.319-11.747.481-.403 1.495-.648 2.432-.795a19.716 19.716 0 0 1 1.374-.164c.378-.032.622-.042.622-.042l-.152.554-.59 2.155-.69 2.513s-2.06 4.183-2.126 4.576c-.066.394 4.88 1.232 4.88 1.232" fill="#E9F2FF"/>
            <path d="M248.388 164.863s-1.718-.738-2.953-1.411c-.806-.44-1.219-1.261-1.303-2.312a19.714 19.714 0 0 1 1.374-.164l.095.032.375.48 2.412 3.375z" fill="#BFDADB"/>
            <path d="m249.138 165.531-2.676-5.036s-.998.2-1.334.51c0 0 .17 1.515.304 1.85 0 0 .516-.059.59-.015 0 0-.25.379-.325.423 0 0 2.327 1.07 3.441 2.268" fill="#E9F2FF"/>
            <path d="M246.042 165.725c-.183-.399-1.795-3.795-1.385-4.66l.158-.019c-.31.655.806 3.607 1.291 4.665l-.064.014z" fill="#111"/>
            <path d="M249.593 168.665c0-.117.096-.212.215-.212s.215.095.215.212a.213.213 0 0 1-.215.212.213.213 0 0 1-.215-.212M249.593 180.542c0-.117.096-.212.215-.212s.215.095.215.212a.213.213 0 0 1-.215.212.213.213 0 0 1-.215-.212M249.702 175.114c0-.117.096-.212.215-.212.118 0 .214.095.214.212a.213.213 0 0 1-.214.212.213.213 0 0 1-.215-.212M249.702 185.702c0-.117.096-.212.215-.212.118 0 .214.095.214.212a.213.213 0 0 1-.214.212.213.213 0 0 1-.215-.212" fill="#BFDADB"/>
            <path d="M247.325 162.12s.745.361 1.948.137l-.135 3.274-1.813-3.412z" fill="#8BC9CC"/>
            <path fill="#7C7C7C" d="m252.03 165.993 6.968.616-4.252 7.454-6.56-.372z"/>
            <path d="M252.672 165.959s.003-1.054.593-.981c.59.073.768 1.131.768 1.131l-1.361-.15z" fill="#BFDADB"/>
            <path d="m258.953 166.515-6.969-.616-3.843 7.698.047.096 3.843-7.699 6.969.617z" fill="#646262"/>
            <path d="M253.265 164.978s.985.477.637 2.005c-.348 1.529-.782 2.368-.53 3.272l4.695.425s-.51-1.202.057-2.419c.566-1.216.164-2.607-.357-2.728l-4.502-.555z" fill="#E9F2FF"/>
            <path d="M255.61 172.675s-.714-.846-.567-1.458c.148-.612.68-.753 1.004-.537.325.217.798.712.709 1.09-.089.38-.787 1.081-1.147.905M247.094 172.172s1.21-.525 1.763-.372c.554.153 1.3.262 1.359.46.058.196-.398.924-1.078.96-.68.037-1.876.35-2.164 0-.287-.349.12-1.048.12-1.048" fill="#F4AC75"/>
        </g>
        <g>
            <path fill="#D36D1A" d="M415.32 215.13h56.161l4.485-17.917H419.65z"/>
            <path fill="#F49540" d="M414.02 215.13h56.309l4.347-17.917h-57.1z"/>
            <path d="M449.002 217.323h20.812c.92 0 1.667-.747 1.667-1.668v-.525h-22.48v2.193z" fill="#D36D1A"/>
            <path fill="#FFA255" d="M400 217.323h57.169v-2.193H400zM466.934 217.323l1.304 5.132v.006l3.86 15.202c.052.2.23.337.432.337a.622.622 0 0 0 .612-.741l-3.444-17.733-.428-2.203h-2.336z"/>
            <path d="M468.238 222.455c-.125-2.626 1.46-2.93 1.46-2.93l-.428-2.202h-2.336l1.304 5.132z" fill="#D36D1A"/>
            <path d="m450.414 217.323 1.304 5.132v.006l3.86 15.202c.051.2.229.337.431.337a.622.622 0 0 0 .612-.741l-3.443-17.733-.429-2.203h-2.335z" fill="#FFA255"/>
            <path d="M451.718 222.455c-.126-2.626 1.46-2.93 1.46-2.93l-.429-2.202h-2.336l1.305 5.132z" fill="#D36D1A"/>
            <path d="m406.312 217.323-1.304 5.132v.006l-3.86 15.202a.448.448 0 0 1-.431.337.623.623 0 0 1-.612-.741l3.443-17.733.429-2.203h2.335z" fill="#FFA255"/>
            <path d="M405.008 222.455c.126-2.626-1.46-2.93-1.46-2.93l.429-2.202h2.336l-1.305 5.132z" fill="#D36D1A"/>
            <path d="m422.833 217.323-1.304 5.132v.006l-3.86 15.202a.448.448 0 0 1-.431.337.622.622 0 0 1-.612-.741l3.443-17.733.428-2.203h2.336z" fill="#FFA255"/>
            <path d="M421.529 222.455c.126-2.626-1.46-2.93-1.46-2.93l.429-2.202h2.335l-1.304 5.132z" fill="#D36D1A"/>
            <g>
                <path d="M440.061 188.613s-1.423 2.092-2.234 6.49c-.71 3.851-1.334 5.273-2.36 6.063-1.027.79-6.745 3.122-6.745 3.122l.427.996s8.382-1.134 9.323-2.526c.942-1.393 4.531-9.616 4.252-11.51-.278-1.894-2.663-2.635-2.663-2.635M434.277 232.149c.529.623-.292 1.432-1.336 2.233-1.044.802-.563.796-1.859 2.088-1.295 1.293-2.171 1.3-2.418 1.176-.22-.11.276-.864.792-1.684l.194-.311c.574-.933.521-1.991.687-3.12.157-1.07-.714-3.541-.714-3.541l1.715-1.821s.74 2.256 1.101 3.187c.213.548.75.954 1.18 1.247.234.16.472.325.658.546" fill="#FFBE92"/>
                <path d="M432.94 234.382c-1.043.802-.562.796-1.858 2.088-1.295 1.293-2.172 1.3-2.418 1.176-.22-.11.276-.863.792-1.684l.02.005s1.289-.37 2.264-1.527c.796-.943 1.335-2.181 1.88-2.837.233.16.47.326.656.546.53.623-.29 1.432-1.335 2.233" fill="#313131"/>
                <path d="M443.98 205.633s-16.31-1.22-19.382.706c-3.07 1.926 5.538 26.272 5.538 26.272s.91-.25 1.542-.706c.58-.418 1.224-1.188 1.224-1.188s.751-8.153-2.166-18.07c-.319-1.083 13.246 2.363 15.387-1.384 2.14-3.748.37-7.457.37-7.457l-2.513 1.827z" fill="#0C767A"/>
                <path d="M425.778 237.159c.076.812-1.062 1.01-2.38 1.075-1.318.065-.92.333-2.726.658s-2.53-.166-2.661-.408c-.116-.215.724-.552 1.618-.932l.338-.146c1.008-.44 1.573-1.337 2.358-2.17.744-.788 1.45-3.312 1.45-3.312l2.455-.52s-.69 2.271-.929 3.24c-.14.571.067 1.209.252 1.694.099.264.2.535.225.82" fill="#FFBE92"/>
                <path d="M423.398 238.234c-1.318.065-.92.333-2.726.658s-2.53-.166-2.661-.408c-.116-.215.724-.552 1.618-.932l.014.015s1.27.429 2.736.032c1.195-.322 2.35-1.032 3.174-1.26.099.263.2.534.225.82.076.812-1.062 1.01-2.38 1.075" fill="#313131"/>
                <path d="M447.174 206.638s-14.49.681-17.482 2.724c-2.993 2.043-7.035 24.646-7.035 24.646s.313.23.994.277c.634.044 2.009-.378 2.009-.378s6.678-10.303 7.078-12.848c.399-2.546.19-4.796 1.32-4.9 1.133-.104 15.342 1.117 17.334-2.71 1.993-3.827-4.218-6.811-4.218-6.811" fill="#0DA4A9"/>
                <path d="M443.194 187.98c-.366-.431-.86-1.236-1.392-2.76.06.15.836 2.045 1.883 2.963 3.647 1.24 7.28 8.964 7.31 8.934 0 0 7.299-5.96 2.19-11.109-1.992-2.007-2.566-4.324-2.88-5.943-.312-1.62-2.82-8.295-7.048-5.303 0 0-.838-.141-1.163-.005 0 0 .29-.018.466.09-.551.106-1.32.345-1.873.876-1.469 1.41-.76 10.513 2.507 12.257" fill="#263238"/>
                <path d="M447.783 186.203s-1.35-.127-2.699 0a8.732 8.732 0 0 0-2.341.584c-1.277.53-1.143 2.777 1.536 2.361 2.68-.416 3.692-2.278 3.504-2.945" fill="#FFBE92"/>
                <path d="M442.856 187.842c-.016.008-.382 1.932 1.372 1.855 1.152-.05 3.636-1.435 3.417-2.415-.104-.466-.975-1.675-1.15-4.433l-.21.056-3.525.94s.156 1.111.23 2.163c.06.884.063 1.725-.134 1.834" fill="#FFBE92"/>
                <path d="M442.76 183.845s.156 1.112.23 2.163c1.995-.188 2.93-2.07 3.295-3.103l-3.525.94z" fill="#F8B487"/>
                <path d="M446.617 182.292s.605-1.856.497-3.283c-.077-1.02-1.51-4.505-5.03-3.054 0 0-1.034.375-1.859 1.298-.656.735-1.504 2.176.59 5.003l.607.98 5.195-.944z" fill="#263238"/>
                <path d="M442.665 185.458s4.612-1.095 3.882-3.938c-.731-2.843-.628-4.9-3.603-4.32-2.975.578-3.266 1.808-3.254 2.816.011 1.008 1.757 5.653 2.975 5.442" fill="#FFBE92"/>
                <path d="M440.835 177.663s2.118 3.014 4.174 3.015c2.057.002 2.762-.725 2.762-.725s-1.782-.791-2.616-2.752c0 0-3.781-1.366-4.32.462" fill="#263238"/>
                <path d="M441.216 177.854s-.746.984-.788 1.766c-.043.782.239 2.298-.211 2.36 0 0-1.532-2.026-.799-3.58.778-1.646 1.798-.546 1.798-.546" fill="#263238"/>
                <path d="M437.421 205.878c.384.455 1.58.595 2.859.804 1.006.165 2.063.372 2.815.81 1.706.997 7.283 4.362 8.918 4.21.634-.06.515-1.262.131-2.857-.604-2.52-1.869-6.017-1.869-7.538 0-.83-.278-2.794-.649-5.04-.03-.181-.06-.364-.092-.548a406.677 406.677 0 0 0-1.75-9.516s-1.135 2.46-3.345 2.46-1.696-1.876-1.696-1.876-2.017.236-2.492.746c-.478.51-1.686 2.714-1.925 3.315 0 0-.05.765 1.857 1.129 0 0-.465 2.076-.52 3.46-.04 1.022.703 4.222.916 6.212.076.705.086 1.258-.03 1.509-.146.322-.624.642-1.166.956-1.077.623-2.416 1.223-1.962 1.764" fill="#079297"/>
                <path d="M448.388 187.824s1.682-1.015 3.308.91c1.627 1.926-1.155 15.691-3.566 16.399-2.677.785-10.709.745-10.709.745l.336-.969s8.345-2.672 8.687-3.108c.342-.437 1.088-13.755 1.944-13.977" fill="#FFBE92"/>
                <path d="M447.783 186.203s3.455.31 4.458 1.439c1.003 1.13 1.297 4.189 1.297 4.189s-3.043 2.44-6.708 1.493l.953-7.12z" fill="#079297"/>
                <path d="m426.34 200.925-.329-3.01 4.285 5.61s-1.794.888-1.9.718c-.104-.17-2.056-3.318-2.056-3.318" fill="#163560"/>
                <path fill="#5F5F5F" d="m432.753 200.925 3.959 6.007h-6.649l-3.723-6.007z"/>
                <path fill="#EFDECE" d="m426.34 200.925-.31-2.982 2.24 2.785zM436.508 206.623l.304-.215-3.933-5.81-.126.327z"/>
                <path fill="#FCECDB" d="m432.878 200.599-6.263.175-.275.151h6.413z"/>
                <path d="M434.186 205.74c.122-.017.28-.014.426-.004-.478-.221-.96-.46-.96-.46s.215-.22 1.037.07c.093.033.186.04.277.03l-1.153-.514c.206-.184.758-.037 1.188.12a.95.95 0 0 0 .908-.139l.012-.009-.056-.006c-.672-.098-.844-.48-.657-.437.186.044 1.314.125 1.314.125.51-.029 1.52.358 1.52.358l-.566 1.036s-1.623.3-2.046.17a2.592 2.592 0 0 1-.12-.042l-1.476-.097s.027-.158.352-.202" fill="#FFB27D"/>
            </g>
        </g>
        <g>
            <path fill="#FFF" d="M186.153 228.585H29.013V205.28h157.14z"/>
            <path d="M180.19 228.209c.12 8.457-6.565 15.413-14.933 15.534-8.368.122-15.249-6.635-15.37-15.092-.12-8.458 6.565-15.413 14.933-15.535 8.368-.122 15.249 6.635 15.37 15.093" fill="#455A64"/>
            <path d="M175.675 228.275c.085 5.937-4.608 10.82-10.483 10.906-5.875.086-10.706-4.658-10.79-10.596-.085-5.938 4.608-10.821 10.483-10.907 5.875-.085 10.706 4.659 10.79 10.597" fill="#FAFAFA"/>
            <path d="M171.518 228.335c.051 3.617-2.808 6.592-6.386 6.644-3.578.052-6.521-2.838-6.573-6.455-.052-3.617 2.808-6.591 6.386-6.644 3.579-.052 6.521 2.838 6.573 6.455M64.32 228.209c.121 8.457-6.565 15.413-14.932 15.534-8.368.122-15.249-6.635-15.37-15.092-.12-8.458 6.565-15.413 14.933-15.535 8.367-.122 15.248 6.635 15.37 15.093" fill="#455A64"/>
            <path d="M59.806 228.275c.085 5.937-4.608 10.82-10.483 10.906-5.875.086-10.706-4.658-10.79-10.596-.085-5.938 4.608-10.821 10.483-10.907 5.875-.085 10.705 4.659 10.79 10.597" fill="#FAFAFA"/>
            <path d="M55.649 228.335c.051 3.617-2.808 6.592-6.386 6.644-3.579.052-6.521-2.838-6.573-6.455-.052-3.617 2.807-6.591 6.386-6.644 3.578-.052 6.521 2.838 6.573 6.455" fill="#455A64"/>
            <path d="M145.176 192.168s22.313 1.663 30.583 3.538c5.828 1.322 17.068 3.602 16.932 10.749l-.891 5.123s4.17 1.924 4.17 6.836c0 4.91 1.018 12.529-8.713 12.833-1.604.05-4.65 0-4.65 0s1.868-20.948-17.172-21.56c-19.37-.624-18.083 21.369-18.083 21.369H66.51s3.318-21.427-17.534-21.458c-20.851-.03-17.679 21.598-17.679 21.598s-7.67.67-11.239-5.846c-3.57-6.516-2.64-11.154-2.64-11.154l.118-4.118c.04-1.402 1.149-2.533 2.535-2.587 0 0-1.393-10.37.745-12.166 2.137-1.795 13.856-12.623 13.856-12.623l-.558-.354c-.935-.594-.773-2.018.271-2.38A6247.97 6247.97 0 0 0 49.7 174.63c.311-.11.632-.178.96-.204 1.235-.096 4.73-.32 11.144-.389 7.814-.084 38.84 0 38.84 0s10.677.888 16.626 3.534c6.254 2.783 27.906 14.597 27.906 14.597" fill="#2AAFB4"/>
            <path d="M190.313 217.846c.809-.166 2.05-.182 2.667.372.458.412.58 1.078.649 1.694.096.845.143 1.711-.056 2.538-.2.827-.676 1.618-1.416 2.025-.74.406-1.755.34-2.33-.282-.526-.568-.587-1.42-.573-2.199.02-1.104-.068-2.04.133-3.126.039-.206.146-.468.279-.63.214-.262.378-.376.647-.392" fill="#455A64"/>
            <path d="M191.8 211.578c-2.37.005-4.667-.132-7.03-.291-.256-.017-.533-.045-.72-.22-.226-.212-.245-.56-.247-.872-.011-1.283.051-2.742 1.014-3.578.589-.51 1.396-.67 2.168-.743 1.902-.181 3.895-.032 5.706.58l-.891 5.124z" fill="#FAFAFA"/>
            <path d="M142.615 230.4s.009-.07.018-.205l.04-.6.124-2.31c.056-1.004.122-2.232.264-3.65.146-1.417.362-3.033.835-4.762a21.744 21.744 0 0 1 2.281-5.369c1.083-1.791 2.505-3.583 4.408-4.97 3.823-2.747 8.985-4.3 14.387-4.367 5.414-.065 10.558 1.664 14.284 4.546a21.1 21.1 0 0 1 4.638 4.783 22.771 22.771 0 0 1 2.714 5.16c.63 1.68.96 3.278 1.146 4.687.204 1.412.174 2.645.14 3.646-.078 1-.165 1.775-.278 2.292l-.106.591c-.023.134-.031.203-.031.203s.017-.067.045-.2l.121-.589c.122-.515.22-1.291.306-2.293.043-1.004.081-2.242-.115-3.66a21.128 21.128 0 0 0-1.13-4.713 22.757 22.757 0 0 0-2.713-5.196 21.159 21.159 0 0 0-4.656-4.822c-3.744-2.906-8.923-4.65-14.367-4.584-5.43.068-10.615 1.63-14.465 4.406-1.92 1.403-3.348 3.211-4.432 5.017a21.758 21.758 0 0 0-2.277 5.404c-.47 1.74-.678 3.36-.817 4.781a73.313 73.313 0 0 0-.24 3.655l-.096 2.312-.025.602c-.005.135-.003.205-.003.205" fill="#FFF"/>
            <path d="M141.757 230.756s.005-.058.01-.172l.017-.507.061-1.979.212-7.507.315-11.652.093-3.479c.04-.595-.023-1.205-.077-1.819l-.13-.921-.187-.923a18.742 18.742 0 0 0-1.26-3.668c-.562-1.2-1.227-2.386-2.076-3.484l-.005-.007-.01-.007-14-8.914-3.78-2.406c-1.253-.858-2.605-1.592-4.002-2.258a40.694 40.694 0 0 0-4.346-1.755c-.743-.263-1.506-.48-2.267-.709-.77-.196-1.539-.418-2.324-.577-3.015-.676-6.05-1.012-9.023-1.15a83.968 83.968 0 0 0-8.735.028l-.084.005.019.083 3.762 17.01.002.01.007.01a18.66 18.66 0 0 1 1.687 3.653c.402 1.249.662 2.532.571 3.781-.096 1.257-.13 2.487-.162 3.68l-.067 3.476c-.066 4.494-.082 8.414-.095 11.644l-.008 7.502.007 1.977.005.507c.002.114.005.172.005.172s.004-.058.005-.172l.006-.507.012-1.977.043-7.501c.024-3.23.05-7.15.125-11.644l.074-3.475c.034-1.193.07-2.418.168-3.673.093-1.273-.168-2.57-.572-3.829a18.723 18.723 0 0 0-1.696-3.684l.008.02-3.748-17.011-.065.087c2.831-.159 5.75-.166 8.718-.025 2.97.14 5.994.475 8.999 1.15.783.157 1.548.378 2.316.574.76.228 1.52.444 2.26.706a40.623 40.623 0 0 1 4.33 1.747c1.393.664 2.739 1.393 3.984 2.246a42057.74 42057.74 0 0 0 17.793 11.31l-.015-.014c.837 1.08 1.504 2.264 2.062 3.454a18.678 18.678 0 0 1 1.257 3.642c.637 2.453.316 4.873.31 7.115l-.285 11.651-.176 7.507-.041 1.98-.008.507a4.13 4.13 0 0 0 0 .172" fill="#263238"/>
            <path d="M90.338 177.374s-.044-.006-.132-.01l-.39-.012-1.503-.037-5.577-.111-18.802-.325H63.9l-.023.028-2.634 3.26-7.523 9.324-.856 1.061a6.084 6.084 0 0 0-.703 1.14 6.002 6.002 0 0 0-.107 4.833l.857 2.018 2.6 6.079.713 1.65.19.427c.042.096.068.144.068.144s-.016-.052-.055-.15l-.175-.433-.689-1.661-2.556-6.098c-.488-1.294-1.345-2.656-1.287-4.316a5.902 5.902 0 0 1 .558-2.436c.187-.39.416-.764.69-1.114.283-.348.569-.702.858-1.06 2.316-2.862 4.86-6.01 7.532-9.314L63.99 177l-.058.027 18.803.275 5.577.066 1.504.011h.39c.088-.001.132-.005.132-.005M99.83 202.645c0-.008-.08-.007-.226-.034a1.55 1.55 0 0 1-1.2-1.036c-.066-.19-.087-.4-.078-.63.005-.225.061-.46.176-.68.225-.438.72-.804 1.304-.804a2453.899 2453.899 0 0 0 6.285.011c.371 0 .733.146.998.393.266.245.436.586.473.937.036.36-.011.713-.181 1.01-.163.3-.43.525-.724.651-.299.134-.62.115-.943.116l-.927.004-1.664.01-2.41.023-.655.014a1.34 1.34 0 0 0-.228.015c0 .005.078.01.228.015l.655.014 2.41.024 1.664.009.927.004c.162-.002.317.006.49-.004a1.602 1.602 0 0 0 1.3-.824c.187-.322.24-.722.202-1.097a1.651 1.651 0 0 0-.518-1.03 1.62 1.62 0 0 0-1.097-.433l-4.376.006-1.91.008a1.609 1.609 0 0 0-1.573 1.607c-.006.231.021.463.093.658.14.399.408.667.653.819.248.153.473.204.622.22.15.017.23.004.23.004" fill="#263238"/>
            <path d="M57.932 202.645c0-.008-.08-.007-.226-.034a1.547 1.547 0 0 1-1.2-1.036c-.066-.19-.087-.4-.078-.63.005-.225.061-.46.176-.68a1.5 1.5 0 0 1 1.304-.804 2457.936 2457.936 0 0 0 6.285.011c.371 0 .733.146.998.393.266.245.436.586.473.937.036.36-.011.713-.18 1.01-.164.3-.43.525-.725.651-.299.134-.62.115-.942.116l-.928.004-1.664.01-2.41.023-.655.014c-.15.005-.228.01-.228.015 0 .005.078.01.228.015l.655.014 2.41.024 1.664.009.928.004c.161-.002.316.006.489-.004a1.602 1.602 0 0 0 1.3-.824c.187-.322.24-.722.202-1.097a1.65 1.65 0 0 0-.518-1.03 1.62 1.62 0 0 0-1.097-.433l-4.376.006-1.911.008a1.609 1.609 0 0 0-1.572 1.607c-.006.231.02.463.093.658.14.399.408.667.653.819.248.153.473.204.622.22.15.017.23.004.23.004" fill="#263238"/>
            <path d="M21.19 195.734h8.383a3.09 3.09 0 0 1 2.738 1.672c.439.843.473 1.843.094 2.715l-3.288 7.549-8.395-.084s-1.785-9.568.467-11.852" fill="#455A64"/>
            <path d="m137.624 194.667-43.259-.806-28.153-.522-9.284-5.418a1.466 1.466 0 0 1-.427-2.143l5.78-7.675a3.204 3.204 0 0 1 2.532-1.281l31.489-.26s11.857-.696 21.199 4.591c9.832 5.565 20.123 13.514 20.123 13.514" fill="#94D7D9"/>
            <path d="M117.798 177.356s-2.168 1-.757 1.925c1.411.926 23.327 14.892 23.327 14.892l5.038-2.305c-8.924-5.025-17.938-9.906-27.608-14.512" fill="#0F4142"/>
            <path d="M139.66 194.522s.045.014.135.035c.096.02.229.05.4.088l1.536.321c1.337.269 3.275.647 5.677 1.064a229.083 229.083 0 0 0 24.305 2.87c1.75.116 3.438.224 5.042.372 3.207.283 6.08.755 8.414 1.457 2.34.679 4.128 1.55 5.305 2.237.603.32 1.032.635 1.337.825l.345.221c.078.05.12.072.12.072s-.037-.03-.112-.084l-.337-.234c-.3-.198-.725-.52-1.325-.85-1.17-.705-2.958-1.594-5.304-2.288-2.338-.718-5.22-1.202-8.43-1.493-1.606-.152-3.296-.263-5.045-.38-1.75-.119-3.56-.254-5.412-.416a244.19 244.19 0 0 1-18.885-2.414 294.4 294.4 0 0 1-5.684-1.016l-1.542-.294-.402-.073a1.992 1.992 0 0 0-.138-.02M17.84 214.101c0 .042 2.883.075 6.439.075 3.557 0 6.44-.033 6.44-.075 0-.04-2.883-.074-6.44-.074-3.556 0-6.44.033-6.44.074M70.585 221.538c0 .042 16.275.075 36.347.075 20.079 0 36.35-.033 36.35-.075 0-.04-16.271-.074-36.35-.074-20.072 0-36.347.033-36.347.074M184.54 214.348c0 .04 2.301.074 5.14.074 2.838 0 5.14-.033 5.14-.074 0-.042-2.302-.075-5.14-.075-2.839 0-5.14.033-5.14.075" fill="#263238"/>
            <path d="M34.904 182.403s1.93 2.185 1.172 3.79c-.76 1.604-8.606 7.218-8.606 7.218l-5.696 1.08 13.13-12.088zM89.057 178.491l1.281 13.98-22.919-.66-9.237-5.428 5.98-7.892zM132.196 193.187s-13.826-10.093-19.282-12.1c-5.265-1.936-8.01-2.421-12.955-2.563-4.727-.136-7.607-.004-7.607-.004l3.653 14.213 36.19.454z" fill="#0F4142"/>
            <path d="M134.22 193.233c0-.885-.473-1.701-1.237-2.135l-3.176-1.804a6.002 6.002 0 0 0-4.852-.48c-1.357.45-2.26 1.753-2.315 3.196-.075 2.005 1.512 3.672 3.497 3.672h5.66c1.338 0 2.422-1.096 2.422-2.449" fill="#2AAFB4"/>
            <path d="M134.22 193.233c-.009 0-.01.109-.037.31a2.503 2.503 0 0 1-.28.839 2.489 2.489 0 0 1-.973.969 2.383 2.383 0 0 1-.817.26c-.3.036-.633.015-.977.018l-4.845-.016a3.649 3.649 0 0 1-1.348-.223 3.432 3.432 0 0 1-1.198-.77 3.448 3.448 0 0 1-1.02-2.754c.078-1.042.63-2.006 1.43-2.564.395-.287.852-.45 1.312-.559a5.963 5.963 0 0 1 3.858.374c.365.165.7.374 1.03.555l.947.532 1.628.912c.478.26.79.634.973.97.184.338.251.637.281.837.03.202.027.31.035.31 0 0 .015-.108-.005-.314a2.404 2.404 0 0 0-.26-.861 2.475 2.475 0 0 0-.984-1.015l-1.617-.93-.941-.541c-.33-.183-.662-.395-1.036-.567a6.058 6.058 0 0 0-3.941-.4c-.467.109-.95.278-1.364.578-.836.582-1.412 1.586-1.493 2.67a3.587 3.587 0 0 0 1.066 2.871c.362.358.793.63 1.25.8.455.174.94.232 1.397.227l4.845-.016c.345-.007.672.011.99-.03.313-.044.599-.146.843-.281.489-.277.803-.669.985-1.015.177-.352.24-.657.258-.862.018-.205.007-.314.007-.314" fill="#263238"/>
            <path d="M27.692 230.53s0-.067-.008-.198l-.039-.582c-.016-.255-.046-.57-.062-.944l-.044-1.292c-.005-.486.003-1.026.008-1.617.038-.59.04-1.233.12-1.92.122-1.372.349-2.934.82-4.605.244-.83.52-1.698.902-2.563a17.12 17.12 0 0 1 1.367-2.601c1.079-1.724 2.606-3.31 4.427-4.671 1.828-1.358 3.99-2.447 6.352-3.165 2.363-.732 4.933-.998 7.55-1.017 2.62-.007 5.181.353 7.535 1.108 1.177.375 2.3.849 3.354 1.4 1.052.554 2.016 1.219 2.911 1.922a24.45 24.45 0 0 1 4.486 4.65c.59.825 1.07 1.684 1.49 2.53.396.858.755 1.694 1.032 2.516a30.27 30.27 0 0 1 1.634 8.033c.046.97.04 1.725.016 2.236l-.033.582c-.006.13-.006.198-.006.198s.01-.066.022-.197l.047-.581c.034-.511.048-1.268.012-2.241a29.827 29.827 0 0 0-1.594-8.065c-.274-.827-.632-1.667-1.027-2.53-.42-.853-.9-1.72-1.495-2.554a24.476 24.476 0 0 0-4.5-4.685c-.9-.709-1.868-1.38-2.93-1.94a21.213 21.213 0 0 0-3.375-1.413c-2.37-.762-4.947-1.124-7.58-1.118-2.626.018-5.21.287-7.59 1.026-2.379.725-4.553 1.823-6.39 3.194a19.415 19.415 0 0 0-2.506 2.22 15.521 15.521 0 0 0-1.945 2.495 17.18 17.18 0 0 0-1.369 2.623c-.382.87-.655 1.744-.898 2.58a24.926 24.926 0 0 0-.801 4.626c-.076.688-.075 1.334-.108 1.925-.002.592-.004 1.134.005 1.62l.057 1.293c.021.374.056.69.076.945l.054.58c.013.13.023.197.023.197M96.61 194.667c0 .002.022.005.066.007l.192.009.739.016 2.716.05c2.294.043 5.463.128 8.962.224 3.5.096 6.67.165 8.965.182 1.148.009 2.076.01 2.718.002l.739-.012.192-.007c.043-.002.065-.004.065-.007s-.022-.005-.065-.008l-.192-.008-.739-.016-2.716-.05c-2.294-.043-5.463-.128-8.963-.225-3.5-.096-6.67-.164-8.964-.181-1.148-.009-2.076-.01-2.718-.002l-.739.011-.192.007a.213.213 0 0 0-.066.008M100.366 198.971c0 .042 1.111.075 2.481.075 1.37 0 2.481-.033 2.481-.075 0-.04-1.11-.074-2.48-.074-1.371 0-2.482.033-2.482.074M99.455 183.652c-.015.038 3.065 1.334 6.88 2.894 3.815 1.561 6.92 2.796 6.935 2.758.015-.039-3.064-1.335-6.88-2.896-3.814-1.56-6.92-2.795-6.935-2.756M105.697 184.63c-.016.037 2.917 1.343 6.55 2.916 3.635 1.573 6.593 2.817 6.61 2.78.015-.038-2.917-1.344-6.552-2.917-3.633-1.573-6.592-2.818-6.608-2.78M66.113 183.11c-.016.038 3.065 1.335 6.88 2.895 3.815 1.561 6.92 2.795 6.934 2.757.016-.038-3.064-1.334-6.88-2.895-3.814-1.56-6.92-2.795-6.934-2.757M72.354 184.088c-.016.038 2.917 1.344 6.55 2.916 3.635 1.574 6.594 2.818 6.61 2.78.016-.038-2.917-1.343-6.551-2.917-3.634-1.572-6.593-2.817-6.609-2.78M65.51 194.664c0 .042 6.127.112 13.682.157 7.558.046 13.683.05 13.684.008 0-.04-6.125-.111-13.683-.157-7.555-.045-13.682-.049-13.682-.008M58.727 198.732c0 .041 1.717.09 3.836.111 2.12.02 3.84.003 3.84-.038 0-.042-1.718-.091-3.838-.111-2.12-.02-3.838-.003-3.838.038M176.026 196.616c0 .005.056.016.166.032l.48.063c.21.024.464.056.759.106.294.047.631.09 1 .165.74.13 1.613.326 2.571.584.956.269 1.995.604 3.063 1.023 1.065.426 2.053.895 2.935 1.355.876.47 1.649.925 2.278 1.339.321.198.597.398.845.565.25.166.458.318.627.444.16.116.291.21.395.283a.74.74 0 0 0 .144.091.733.733 0 0 0-.126-.114l-.379-.306a11.54 11.54 0 0 0-.613-.466c-.245-.174-.517-.381-.835-.586a27.33 27.33 0 0 0-2.273-1.372 30.166 30.166 0 0 0-2.944-1.372 30.079 30.079 0 0 0-3.082-1.017 27.173 27.173 0 0 0-2.589-.555c-.37-.068-.71-.104-1.006-.144a11.524 11.524 0 0 0-.764-.08l-.483-.036a.714.714 0 0 0-.17-.002M125.449 189.861c.011.009.083-.112.272-.266a1.87 1.87 0 0 1 .936-.382c.43-.058.95.016 1.51.165.562.142 1.17.344 1.783.613a11.684 11.684 0 0 1 2.901 1.823c.673.572 1.03.994 1.05.974.008-.007-.077-.115-.239-.305a9.283 9.283 0 0 0-.742-.748 10.76 10.76 0 0 0-2.91-1.88 10.714 10.714 0 0 0-1.81-.61c-.568-.143-1.11-.21-1.557-.136a1.83 1.83 0 0 0-.959.442 1.25 1.25 0 0 0-.19.22c-.034.056-.05.088-.045.09" fill="#FFF"/>
            <path d="M34.262 182.301s.42.128 1.206.125c.391-.01.87-.056 1.414-.177a12.6 12.6 0 0 0 1.802-.562c.654-.25 1.352-.566 2.105-.891l1.176-.48c.405-.163.832-.303 1.264-.463a48.726 48.726 0 0 1 5.772-1.59 65.575 65.575 0 0 1 10.788-1.357c.696-.038 1.326-.039 1.879-.055h1.42l.896.02.234.002c.052 0 .08-.002.08-.005a.325.325 0 0 0-.08-.01l-.232-.016-.897-.049-1.421-.025c-.554.008-1.186 0-1.883.032-2.787.082-6.643.432-10.814 1.317a47.406 47.406 0 0 0-5.787 1.607c-.433.161-.86.304-1.266.47l-1.177.488c-.753.33-1.446.652-2.094.906a12.93 12.93 0 0 1-1.783.58 7.617 7.617 0 0 1-1.398.2c-.388.01-.69-.01-.892-.034l-.232-.028a.324.324 0 0 0-.08-.005" fill="#263238"/>
            <path d="M16 243.717c0 .065 80.599.117 180 .117" fill="#000"/>
        </g>
        <g>
            <path d="M322.533 266s0-1.259.182-1.677c.182-.419.849-2.123.849-2.123h2.607s.485 1.555.516 2.063c.03.508 0 1.737 0 1.737h-4.154zM339.089 266s0-1.259-.182-1.677c-.182-.419-.85-2.123-.85-2.123h-2.607s-.485 1.555-.515 2.063c-.03.508 0 1.737 0 1.737h4.154z" fill="#313131"/>
            <path d="M322.86 222.412s.456 13.736-.226 21.573.005 18.744.005 18.744 2.181 1.186 4.546 0c0 0 2.594-15.14 2.577-18.744-.017-3.837 2.823-20.974 2.823-20.974l-9.725-.599z" fill="#0DA4A9"/>
            <path d="M338.994 262.728s-2.181 1.187-4.546 0c0 0-2.593-15.14-2.577-18.743.008-1.62-.495-5.614-1.078-9.686-.797-5.57-1.745-11.288-1.745-11.288l10.103-.622s-.834 13.76-.151 21.596c.682 7.837-.006 18.743-.006 18.743" fill="#0DA4A9"/>
            <path d="M331.871 243.985c.008-1.62-.494-5.614-1.078-9.686.605-2.432 2.079-4.773 2.079-4.773 1.864 5.157-1 14.459-1 14.459" fill="#0C767A"/>
            <path d="M324.822 200.078s-3.758.44-4.583 3.77c-.825 3.328-4.07 11.788-.825 13.7 0 0 3.437-4.542 4.744-8.202 1.306-3.661.664-9.268.664-9.268M337.6 201.855s3.78-.47 4.606 2.86c.825 3.329 3.463 10.763.217 12.675 0 0-3.669-4.384-4.975-8.044-1.307-3.661.151-7.491.151-7.491M328.642 195.357s-.092 2.802-.455 4.058l-2.88 1.98 10.84 1.6-2.586-3.522s-.78-3.757-.37-5.147c.408-1.39-4.549 1.03-4.549 1.03" fill="#FFBE92"/>
            <path d="M328.626 195.744s.857 2.034 2.472 1.99c1.615-.045 1.982-1.845 1.982-1.845l-4.454-.145z" fill="#F8B487"/>
            <g transform="translate(326.58 186)">
                <mask id="ir9izh7spd" fill="#fff">
                    <use xlink:href="#r1ry4lmfxc"/>
                </mask>
                <path d="M1.083 8.097S.56 5.53.197 4.753C-.166 3.976-.47.508 3.563.33c0 0 1.546.18 2.395-.329 0 0 0 .508-.212.688 0 0 1.395-.33 2.486.867 1.092 1.195-.727 5.38-.636 6.367l-6.513.175z" fill="#263238" mask="url(#ir9izh7spd)"/>
            </g>
            <path d="M330.913 196.947c-1.17-.02-3.323-1.556-3.323-3.458v-2.968c0-.694.491-1.262 1.092-1.262h4.463c.6 0 1.091.568 1.091 1.262v2.8c0 1.995-1.981 3.65-3.323 3.626" fill="#FFBE92"/>
            <path d="M327.59 192.106s.006-1.783 1.439-2.058c1.432-.274 4.639.87 5.094-.43.454-1.301-6.198-1.279-6.533-.45-.335.83 0 2.938 0 2.938" fill="#263238"/>
            <path d="m339.765 208.128-.464 20.402c-8.37 1.424-17.343.271-17.343.271l.833-16.677c-.022-.242-.039-.49-.046-.743-.01-.334-.002-.728.018-1.168.168-3.5 1.24-9.797 2.059-10.136 0 0 1.215-.444 3.365-.663 0 .042 1.247 1.84 2.726 2.04.92-.357 1.642-.663 2.649-1.981.59.068 1.21.152 1.869.275l.147.027c.722.14 1.49.325 2.313.586 0 0 1.063.406.827 7.713l1.047.054z" fill="#FFF"/>
            <path d="M319.414 217.548c3.798 1.008 5.934-1.597 14.822-5.2l-.27-1.398s-10.218.117-12.009 1.073c-2.327 1.243-2.856 5.442-2.543 5.525" fill="#FFBE92"/>
            <path d="M326.58 199.64v.002l-.895 2.613-.04.119-.013.035-.065.192-1.11 3.237-.11.323-1.22 3.566c-.115.01-.228.02-.337.028-3.178.22-4.752-.714-4.752-.714s.654-4.17 2.235-6.542c1.034-1.553 3.414-2.297 4.937-2.626l.143-.03c.728-.15 1.228-.202 1.228-.202M336.783 200.078s2.81.406 4.666 2.583c1.857 2.176 2.338 5.973 2.338 5.973s-2.578 1.084-5.603.813c-3.026-.27-1.4-9.37-1.4-9.37" fill="#FFF"/>
            <path fill="#D0EDEE" d="M333.47 207.312h3.876v-1.454h-3.876z"/>
            <path d="m324.594 208.984.182-.082c-.01-.024-1.11-2.437-.37-5.047a2.013 2.013 0 0 1 1.65-1.436c.727-.095 1.386.253 1.808.955 1.003 1.665-.822 5.695-.84 5.735l.183.082c.005-.01.476-1.046.813-2.28.458-1.674.463-2.898.017-3.639-.465-.772-1.197-1.155-2.008-1.05-.85.112-1.58.746-1.817 1.58-.76 2.681.37 5.158.382 5.182" fill="#111"/>
            <path d="M327.394 209.227a.29.29 0 0 0-.557-.154.29.29 0 0 0 .557.154M324.985 209.026a.29.29 0 0 0-.557-.154.29.29 0 0 0 .557.154" fill="#077579"/>
            <path d="M326.42 202.393c-.005 0-.01 0-.015-.002a.068.068 0 0 1-.052-.081c.004-.02.447-1.912 1.432-3.008a.07.07 0 0 1 .097-.006.067.067 0 0 1 .005.095c-.96 1.071-1.396 2.93-1.4 2.949a.069.069 0 0 1-.067.053" fill="#111"/>
            <path d="M326.826 209.994s-3.838-.215-3.879 1.715l3.548-.158.331-1.557z" fill="#FFBE92"/>
            <path d="M336.983 210.979s2.872-.718 3.353 1.178c.482 1.897-4.129 0-4.129 0l.776-1.178z" fill="#F8B487"/>
            <path d="M335.676 202.634a.069.069 0 0 1-.065-.044 11.2 11.2 0 0 0-1.828-3.131.067.067 0 0 1 .007-.096.07.07 0 0 1 .097.007 11.348 11.348 0 0 1 1.854 3.173.068.068 0 0 1-.065.091" fill="#111"/>
            <path d="M336.348 202.713c0-.366-.301-.662-.672-.662a.667.667 0 0 0-.672.662c0 .366.3.662.672.662.37 0 .672-.296.672-.662" fill="#111"/>
            <path d="M335.982 202.713a.304.304 0 0 0-.306-.302.304.304 0 0 0-.306.302c0 .167.137.302.306.302.169 0 .306-.135.306-.302" fill="#077579"/>
            <path d="M329.784 214.295s-1.093-1.295-3.736-2.937l4.486.835 1.37 1.107-.624.313-1.496.682zM334.32 211.122l3.825-.276-.267 1.077z" fill="#F8B487"/>
            <path d="M342.423 217.39s-7.883-.844-17.116-6.587l1.519-.809s12.109 1.296 13.626 2.42c2.38 1.764 3.757 4.565 1.971 4.976" fill="#FFBE92"/>
            <path d="M322.947 211.71s2.625-.443 2.579-.477c-.046-.034-.954-.305-1.162-.203l-1.417.68" fill="#F8B487"/>
        </g>
        <g>
            <path d="M353.663 208.192c-.136.256-1.046 9.885-.332 11.152.715 1.267 4.09-2.415 4.173-8.63.07-5.235-3.84-2.522-3.84-2.522" fill="#FFBE92"/>
            <path fill="#5F5F5F" d="m347 223.17 13.332 4.108 2.915-9.346-13.333-4.108z"/>
            <path d="m353.347 263.708 1.374.508s5.965-8.224 6.699-15.46c.131-1.292.088-2.544-.196-3.7l.16-.916.172-.979c.194-1.105.46-2.616.766-4.337.701-3.96 1.61-9.023 2.317-12.745l-.37-.118-4.004-1.284-.827-2.613-2.982-.78s-.666 1.295-1.26 7.414c-.11.802-.21 1.687-.286 2.647a52.087 52.087 0 0 0 .284 10.717c.137 1.063.31 2.161.524 3.29.157.826.18 1.953.114 3.247-.3 5.916-2.485 15.109-2.485 15.109" fill="#0DA4A9"/>
            <path d="m354.91 231.345 6.474 12.795.172-.979c.194-1.105.46-2.616.766-4.337.701-3.96 1.61-9.023 2.317-12.745l-.37-.118-4.004-1.284-.827-2.613-2.982-.78s-.665 1.295-1.261 7.414c-.11.802-.21 1.687-.285 2.647" fill="#0C767A"/>
            <path d="m357.758 222.926.15-1.278c2.511.663 9.22-1.852 9.22-1.852s2.432 2.126 2.113 7.22c-.157 2.487-.441 13.055-.739 16.182a93.46 93.46 0 0 1-.24 2.262v.003a.447.447 0 0 0 .073.277c.437.739.8 1.508 1.097 2.295 2.92 7.732-.45 17.255-.45 17.255l-.873-.35s-1.917-10.598-3.475-15.28c-.264-.793-.517-1.417-.75-1.79-.677-1.087-1.305-2.862-1.876-4.974-1.078-3.992-1.946-9.185-2.523-13.194-.08.004-1.727-6.776-1.727-6.776" fill="#0DA4A9"/>
            <path d="M363.901 266h6.917s.165-1.048-.196-1.843c-.346-.763-.888-1.11-.758-2.033-.44.45-1.156.954-2.156.82-.123.197-.791 1.254-1.2 1.547-.452.323-2.468.208-2.607 1.509M349.05 266h6.916s.259-1.097-.195-1.843c-.402-.66-.248-1.036.05-1.583a2.7 2.7 0 0 1-1.165.218c-.345-.02-.71-.175-1.029-.36-.298.338-1.572 1.774-1.97 2.059-.453.323-2.468.208-2.607 1.509" fill="#313131"/>
            <path d="M365.3 187.626c.054-.185.711-2.157 3.817-1.488 0 0-1.56-.201-1.99.395 0 0 1.239-.559 2.012-.085.772.475.893 2.061.776 2.543-.118.482-.979 1.915-1.545 1.913-.215 0-.444-.072-.646-.161.086.255.163.533.227.838.59 2.816-1.3 4.947-2.272 4.415-.622-.342-1.1.743-1.1.743l-5.152-6.846s3.627-4.298 5.873-2.267" fill="#263238"/>
            <path d="M360.942 205.817c4.266 1.324 4.948-5.327 4.675-5.361-.459-.408-1.07-1.983-1.05-4.354l-.21.039-3.493.673s.075 1.094.074 2.122c-.002.804-.05 1.57-.217 1.745a26.49 26.49 0 0 0-.435.063l-.002.003c-.052.072-.48 4.717.658 5.07" fill="#FFBE92"/>
            <path d="M360.864 196.815s.075 1.093.073 2.122c1.954-.048 2.994-1.815 3.42-2.795l-3.493.673z" fill="#F8B487"/>
            <path d="M360.208 197.787s4.621.094 4.636-2.769c.014-2.862.62-4.777-2.33-4.958-2.95-.181-3.529.908-3.767 1.862-.239.954.259 5.767 1.46 5.865" fill="#FFBE92"/>
            <path d="M358.89 190.331c.718-.858 1.258-.667 1.56-.407 2.53-1.37 4.15.677 4.15.677.302 2.055 1.787 3.237 1.787 3.237s-.845.515-2.785.01c-.593-.154-1.12-.575-1.569-1.085.78 1.313 1.847 2.26 1.847 2.26-2.316-1.075-3.235-4.286-3.326-4.625-.283.25-.842.796-1.013 1.331-.233.728-.343 2.228-.783 2.176 0 0-.944-2.287.133-3.574" fill="#263238"/>
            <path d="M365.137 199.672s.726.235.765.744c0 0-1.946 3.615-4.099 3.82l3.334-4.564z" fill="#E8F0F0"/>
            <path d="m354.99 216.867-1.67 9.468c.986.6 1.938 1.114 2.853 1.556.253-.74.722-1.578.751-1.629-.133.487.203 1.564.415 2.158 8.517 3.648 13.66.845 13.66.845-1.278-9.353-.33-24.751-.56-25.851-.437-2.09-4.537-2.997-4.537-2.997-1.5 2.611-4.1 3.82-4.1 3.82-.977-.96-1.232-3.532-1.232-3.532l-1.709.417a6.47 6.47 0 0 0-2.947 1.595 5.869 5.869 0 0 0-.216.22c-.845.898-3.043 6.692-3.043 6.692s.46 1.592 1.309 2.394c.433.41.998.798 1.668 1.204l-.642 3.64z" fill="#FFF"/>
            <path d="M361.803 204.237s-1.066-3.51-.942-3.965c0 0-.836.103-.908.584 0 0 .944 2.929 1.85 3.38M353.964 212.023c.449.393.998.798 1.668 1.204 0 0 1.28-4.759.899-5.09-.382-.332-1.082 2.798-2.567 3.886" fill="#E8F0F0"/>
            <g transform="translate(369.348 206.598)">
                <mask id="3ezkr75bnf" fill="#fff">
                    <use xlink:href="#hdya0r7d9e"/>
                </mask>
                <path d="M3.225 0s5.966 8.075 5.387 10.817c-.46 2.185-6.497 7.206-6.497 7.206l-1.559-1s3.77-5.43 3.44-7.022C3.738 8.763 0 4.071 0 4.071L3.225 0z" fill="#FFBE92" mask="url(#3ezkr75bnf)"/>
            </g>
            <path d="M368.59 201.421s3.308 1.766 6.156 7.374c0 0-1.68 2.223-5.026 3.302-3.345 1.078-3.232-5.347-3.232-5.347l2.101-5.329z" fill="#FFF"/>
            <path fill="#E8F0F0" d="m361.636 207.734-4.104.01-.027 3.35 1.8 1.007 2.237-.858z"/>
            <path d="M370.307 223.723s-1.683-.637-2.625-.388c-.531.141-1.518 2.009-.903 2.29.614.282 1.308-.716 2.065-.528.756.188 1.691 1.28 2.619-.476l-1.156-.898z" fill="#FFBE92"/>
            <path d="M370.216 223.512s-.646-.291-.939-.494c-.292-.202-.47.159 0 .494.47.334.638.185.638.185l.301-.185zM347.47 223.307s1.909-.901 2.298.11c.388 1.01-.283 1.858-.922 1.659-.64-.2-1.78-.876-1.376-1.77" fill="#FFBE92"/>
            <path d="m366.662 211.156-.15-.143c.02-.02 1.922-2.016 2.1-4.827.053-.817-.394-1.607-1.11-1.967-.675-.339-1.437-.22-2.09.326-1.55 1.295-1.162 5.867-1.158 5.913l-.207.018a17.59 17.59 0 0 1-.006-2.513c.132-1.796.549-3 1.238-3.576.72-.601 1.564-.73 2.316-.352.79.397 1.282 1.266 1.225 2.164-.184 2.889-2.139 4.937-2.158 4.957" fill="#111"/>
            <path d="M363.853 210.448a.298.298 0 0 1 .595.038.297.297 0 0 1-.316.277.297.297 0 0 1-.279-.315M366.266 211.065a.297.297 0 0 1 .317-.277.296.296 0 1 1-.038.591.297.297 0 0 1-.279-.314" fill="#077579"/>
            <path d="M367.18 204.074h-.008a.07.07 0 0 1-.062-.078c.002-.02.219-1.992-.348-3.367a.07.07 0 0 1 .131-.053c.581 1.408.36 3.415.357 3.435a.07.07 0 0 1-.07.063M358.484 204.604h-.002a.071.071 0 0 1-.068-.073c.077-2.016.793-3.706.8-3.723a.071.071 0 0 1 .093-.037.07.07 0 0 1 .037.092c-.007.017-.713 1.685-.789 3.673a.07.07 0 0 1-.07.068" fill="#111"/>
            <path d="M357.872 204.89a.693.693 0 0 1 1.318-.423.693.693 0 0 1-1.318.423" fill="#111"/>
            <path d="M358.231 204.774a.316.316 0 0 1 .6-.192.316.316 0 0 1-.6.192" fill="#077579"/>
        </g>
    </g>
</svg>
